<svg width="36" height="36" viewBox="0 0 36 36" fill="none" xmlns="http://www.w3.org/2000/svg">
<path d="M17.9997 0C8.07476 0 0 8.07476 0 18C0 27.9255 8.07476 36 17.9997 36C27.9249 36 36 27.9255 36 18C35.9997 8.07476 27.9246 0 17.9997 0ZM17.9997 34.2247C9.05355 34.2247 1.77532 26.9464 1.77532 18C1.77532 9.05385 9.05355 1.77532 17.9997 1.77532C26.9459 1.77532 34.2247 9.05385 34.2247 18C34.2244 26.9464 26.9459 34.2247 17.9997 34.2247Z" fill="#484E53"/>
<path d="M8.85718 14.1855H13.0227V25.0547H8.85718V14.1855Z" fill="#484E53"/>
<path d="M10.8995 12.4515C12.0638 12.4515 13.0077 11.5904 13.0077 10.5282C13.0077 9.46606 12.0638 8.60498 10.8995 8.60498C9.73513 8.60498 8.79126 9.46606 8.79126 10.5282C8.79126 11.5904 9.73513 12.4515 10.8995 12.4515Z" fill="#484E53"/>
<path d="M23.4934 13.9399C22.6404 13.9399 21.9175 14.0953 21.3234 14.4057C20.7298 14.7163 20.1434 15.233 19.5632 15.9561V14.1855H15.6841V25.0546H19.8496V19.8349C19.8496 18.8455 20.0067 18.1602 20.3206 17.7779C20.6346 17.3959 21.0435 17.2048 21.5486 17.2048C22.0057 17.2048 22.3605 17.3465 22.6132 17.6297C22.8659 17.9128 22.9916 18.3954 22.9916 19.078V25.0546H27.1778V18.1466C27.1778 16.7136 26.8518 15.6543 26.1999 14.9684C25.549 14.2826 24.6462 13.9399 23.4934 13.9399Z" fill="#484E53"/>
</svg>
