<svg width="36" height="36" viewBox="0 0 36 36" fill="none" xmlns="http://www.w3.org/2000/svg">
<path fill-rule="evenodd" clip-rule="evenodd" d="M0.753147 0.753147C1.75737 -0.251049 3.3855 -0.251049 4.38972 0.753147L18 14.3635L31.6104 0.753147C32.6145 -0.251049 34.2427 -0.251049 35.2469 0.753147C36.251 1.75737 36.251 3.3855 35.2469 4.38972L21.6366 18L35.2469 31.6104C36.251 32.6145 36.251 34.2427 35.2469 35.2469C34.2427 36.251 32.6145 36.251 31.6104 35.2469L18 21.6366L4.38972 35.2469C3.3855 36.251 1.75737 36.251 0.753147 35.2469C-0.251049 34.2427 -0.251049 32.6145 0.753147 31.6104L14.3635 18L0.753147 4.38972C-0.251049 3.3855 -0.251049 1.75737 0.753147 0.753147Z" fill="#050505"/>
</svg>
