<svg width="28" height="28" viewBox="0 0 28 28" fill="none" xmlns="http://www.w3.org/2000/svg">
<g clip-path="url(#clip0_2007_2)">
<path d="M24.9395 0.939453C25.5252 0.353687 26.4748 0.353687 27.0605 0.939453C27.6464 1.52524 27.6464 2.47474 27.0605 3.06055L16.1211 14L27.0605 24.9395C27.6464 25.5252 27.6464 26.4748 27.0605 27.0605C26.4748 27.6464 25.5252 27.6464 24.9395 27.0605L14 16.1211L3.06055 27.0605C2.47474 27.6464 1.52524 27.6464 0.939453 27.0605C0.353687 26.4748 0.353687 25.5252 0.939453 24.9395L11.8789 14L0.939453 3.06055C0.353677 2.47474 0.353678 1.52525 0.939453 0.939453C1.52525 0.353678 2.47474 0.353677 3.06055 0.939453L14 11.8789L24.9395 0.939453Z" fill="black" stroke="black"/>
</g>
<defs>
<clipPath id="clip0_2007_2">
<rect width="28" height="28" fill="white"/>
</clipPath>
</defs>
</svg>
