<svg width="28" height="28" viewBox="0 0 28 28" fill="none" xmlns="http://www.w3.org/2000/svg">
<path fill-rule="evenodd" clip-rule="evenodd" d="M0.585781 0.585781C1.36684 -0.19526 2.63316 -0.19526 3.41423 0.585781L14 11.1716L24.5858 0.585781C25.3668 -0.19526 26.6332 -0.19526 27.4142 0.585781C28.1953 1.36684 28.1953 2.63316 27.4142 3.41423L16.8284 14L27.4142 24.5858C28.1953 25.3668 28.1953 26.6332 27.4142 27.4142C26.6332 28.1953 25.3668 28.1953 24.5858 27.4142L14 16.8284L3.41423 27.4142C2.63316 28.1953 1.36684 28.1953 0.585781 27.4142C-0.19526 26.6332 -0.19526 25.3668 0.585781 24.5858L11.1716 14L0.585781 3.41423C-0.19526 2.63316 -0.19526 1.36684 0.585781 0.585781Z" fill="#C1C1C1"/>
</svg>
