<svg width="36" height="36" viewBox="0 0 36 36" fill="none" xmlns="http://www.w3.org/2000/svg">
<g clip-path="url(#clip0_2008_2)">
<mask id="mask0_2008_2" style="mask-type:luminance" maskUnits="userSpaceOnUse" x="0" y="0" width="36" height="36">
<path d="M36 0H0V36H36V0Z" fill="white"/>
</mask>
<g mask="url(#mask0_2008_2)">
<path d="M32.0651 1.20786C32.8182 0.454733 34.0391 0.454733 34.7921 1.20786C35.5454 1.96102 35.5454 3.1818 34.7921 3.93499L20.7272 18L34.7921 32.0651C35.5454 32.8181 35.5454 34.039 34.7921 34.7921C34.0391 35.5454 32.8182 35.5454 32.0651 34.7921L18.0001 20.7271L3.93505 34.7921C3.18186 35.5454 1.96108 35.5454 1.20792 34.7921C0.454794 34.039 0.454794 32.8181 1.20792 32.0651L15.2729 18L1.20792 3.93499C0.454781 3.1818 0.454782 1.96103 1.20792 1.20786C1.96109 0.454721 3.18186 0.45472 3.93505 1.20786L18.0001 15.2729L32.0651 1.20786Z" fill="white" stroke="white"/>
</g>
</g>
<defs>
<clipPath id="clip0_2008_2">
<rect width="36" height="36" fill="white"/>
</clipPath>
</defs>
</svg>
