<svg width="101" height="101" viewBox="0 0 101 101" fill="none" xmlns="http://www.w3.org/2000/svg">
<g filter="url(#filter0_f_2004_100)">
<path d="M60.7051 5.01397L60.9808 5.04995L61.2625 5.09792L61.4063 5.1279L61.5441 5.15788L61.6819 5.19985L61.8258 5.24182L62.1074 5.33776L62.2453 5.39772L62.3891 5.45768L62.6588 5.5776L62.7966 5.63756L63.0603 5.78146L63.324 5.93736L63.7015 6.19519L64.0611 6.483L64.2888 6.68686L64.5046 6.90272L64.6064 7.02264L64.6664 7.09459L64.7263 7.17254L64.7862 7.24449L64.8462 7.32843L64.9061 7.40038L65.0259 7.55628L65.0859 7.64022L65.1458 7.71817L65.2477 7.88006L65.3555 8.05994L65.4514 8.23982L65.5473 8.4317L65.5953 8.53363L65.6851 8.74948L65.7271 8.8694L65.787 8.98932L65.829 9.10924L65.8769 9.22916L65.9189 9.36707L65.9668 9.50498L66.0088 9.64289L66.1046 9.94269L66.1526 10.0986L66.2005 10.2665L66.2605 10.4464L66.638 11.8554L66.6979 12.0953L66.7818 12.419L66.8597 12.7488L67.0036 13.4264L67.0635 13.7741L67.1354 14.1159L67.1953 14.4757L67.3032 15.1952L67.3631 15.5549L67.4111 15.9327L67.453 16.3044L67.495 16.6882L67.5309 17.0719L67.5669 17.4617L67.5969 17.8514L67.6208 18.2531L67.6508 18.6549L67.7107 19.8901L67.7347 21.6109L67.7167 22.948L67.6807 23.8654L67.6688 24.3331L67.6388 24.8008L67.6148 25.2805L67.5549 26.2398L67.513 26.7315L67.477 27.2232L67.3212 28.902L67.3092 29.0579L67.2912 29.2138L67.2792 29.3757L67.2553 29.6875L67.2313 29.9873L67.2193 30.1312L67.2013 30.419L67.1893 30.551L67.1833 30.6889V30.8268L67.1714 30.9467L67.1654 31.0786V31.3184L67.1474 31.5403V31.6422L67.1414 31.7502L67.1294 31.942V32.1219V32.1999V32.3498L67.1234 32.4697L67.1294 32.5296V32.5776V32.6256V32.6615V32.6915V32.7215L67.1354 32.7395L67.1414 32.7515H67.1474H67.1594L67.1774 32.7575H67.5789L67.6568 32.7515H67.7407H67.8306H67.9265L68.1302 32.7395L68.3519 32.7275L68.4718 32.7215H68.7235L68.9992 32.6975H69.143L69.2808 32.6855L69.4306 32.6735L69.5865 32.6615L69.7483 32.6496H69.9101L70.0659 32.6376L70.2337 32.6256L70.4135 32.6076L70.5933 32.5956H70.7611L71.1206 32.5716L71.3004 32.5536L71.672 32.5236L71.8517 32.5056L72.6907 32.4457L73.5118 32.3857L74.3268 32.3378L75.9089 32.2778L76.6879 32.2598L77.443 32.2478H78.1921H78.9233L79.6424 32.2598L80.3436 32.2778L81.7039 32.3378L82.3631 32.3857L83.0044 32.4337L83.6336 32.4937L84.2509 32.5536L84.8501 32.6256L85.4314 32.7035L85.9948 32.7935L86.5521 32.8894L87.0795 32.9913L87.6009 33.1112L88.0983 33.2312L88.5777 33.3511L89.0451 33.483L89.4946 33.6269L89.9261 33.7708L90.3456 33.9267L90.7471 34.0886L91.1246 34.2565L91.4842 34.4364L91.8318 34.6162L92.1554 34.8081L92.455 35.006L92.7547 35.2158L93.0243 35.4257L93.276 35.6416L93.5038 35.8694L93.7195 36.1092L93.8034 36.2112L93.9652 36.409L94.0371 36.505L94.109 36.6069L94.169 36.7088L94.2289 36.8048L94.3488 36.9847L94.4087 37.0866L94.5585 37.3684L94.6064 37.4643L94.6484 37.5543L94.6843 37.6562L94.7802 37.938L94.8402 38.1359L94.8761 38.3338L94.8941 38.4297L94.9061 38.5376L94.9181 38.6336V38.7355L94.9301 38.9514V39.0593L94.9181 39.2751L94.9121 39.3951L94.9001 39.515L94.8941 39.6349L94.8581 39.8747L94.8342 39.9947L94.8102 40.1266L94.7922 40.2465L94.7443 40.4563L94.6843 40.6662L94.6124 40.8821L94.5345 41.0979L94.4446 41.3198L94.3428 41.5476L94.2349 41.7695L94.115 42.0093L93.9832 42.2372L93.8394 42.477L93.6895 42.7168L93.5337 42.9567L93.1742 43.4364L92.7906 43.928L92.5749 44.1679L92.3651 44.4197L91.658 45.1632L91.4063 45.421L90.8789 45.9247L90.6032 46.1825L90.0279 46.6862L89.7283 46.944L89.111 47.4477L88.7934 47.7055L88.4638 47.9454L87.445 48.6949L87.0855 48.9347L86.3543 49.4144L85.9828 49.6542L85.6052 49.8941L85.3775 50.038L85.1378 50.1819L84.8861 50.3318L84.6344 50.4877L84.3647 50.6436L84.0891 50.7995L83.5138 51.1232L83.2141 51.3031L82.9145 51.465L82.6148 51.6329L82.3152 51.8128L81.6979 52.1486L81.3863 52.3105L81.0867 52.4783L80.775 52.6402L80.1758 52.958L79.8761 53.1139L79.5765 53.2638L79.2888 53.4137L78.7375 53.6895L78.2221 53.9414L77.9704 54.0613L77.7427 54.1812L77.5209 54.2831L77.3112 54.3851L77.1194 54.475L76.9396 54.553L76.7778 54.6129L76.622 54.6729L76.5022 54.7328L76.3823 54.7688L76.2804 54.8048L76.2085 54.8228L76.1486 54.8348L76.1186 54.8228L76.0947 54.7988L76.0707 54.7628L76.0527 54.7148L76.0347 54.6549L76.0227 54.5949L76.0167 54.517L76.0048 54.433V54.3431L76.0108 54.2412V54.1212L76.0167 54.0133L76.0287 53.8934L76.0347 53.7735L76.0647 53.5097L76.0827 53.3777L76.1426 52.958L76.1666 52.8141L76.2265 52.5323L76.2565 52.3884L76.3164 52.1186L76.3523 51.9867L76.3823 51.8548L76.4243 51.7348L76.4542 51.6149L76.4962 51.495L76.5381 51.3871L76.61 51.1952L76.646 51.1053L76.6879 51.0273L76.7299 50.9554L76.7658 50.8954L76.8078 50.8354L76.8438 50.7995L76.8797 50.7695L76.9396 50.7455L76.9996 50.7155L77.0295 50.6915L77.0715 50.6675L77.1074 50.6496L77.1494 50.6316L77.1973 50.6076L77.2932 50.5476L77.4011 50.4997L77.461 50.4637L77.5209 50.4397L77.6408 50.3677L77.8326 50.2718L77.9644 50.1999L78.1022 50.1219L78.2461 50.05L78.4678 49.93L78.5397 49.8881L78.6895 49.8101L78.7674 49.7681L78.9173 49.6902L79.0012 49.6542L79.0731 49.6122L79.151 49.5763L79.2289 49.5343L79.3068 49.4983L80.1278 49.0786L80.5293 48.8627L80.9308 48.6349L81.3264 48.419L81.7159 48.2032L82.0994 47.9813L82.8545 47.5316L83.2141 47.3158L83.9332 46.8661L84.2808 46.6382L84.6224 46.4224L84.964 46.1945L85.2936 45.9727L85.6172 45.7448L85.9349 45.529L86.2465 45.3071L86.8458 44.8634L87.1274 44.6536L87.4031 44.4317L87.6728 44.2158L87.9364 44L88.4398 43.5803L88.6796 43.3704L89.123 42.9627L89.5245 42.5609L89.8841 42.1712L90.0519 41.9793L90.2137 41.7995L90.3575 41.6196L90.4954 41.4397L90.6152 41.2598L90.831 40.912L90.9149 40.7442L90.9988 40.5643L91.0707 40.4024L91.1306 40.2405L91.1786 40.0786L91.2145 39.9227L91.2385 39.7668L91.2505 39.6109V39.3111L91.2325 39.1612L91.2025 39.0173L91.1606 38.8854L91.1126 38.7475L91.0527 38.6096L90.9808 38.4777L90.8969 38.3577L90.7051 38.1059L90.4654 37.8661L90.1778 37.6382L90.0219 37.5303L89.8541 37.4224L89.4946 37.2185L89.0871 37.0206L88.8653 36.9307L88.6256 36.8408L88.3859 36.7568L88.1342 36.6729L87.8765 36.5889L87.6009 36.505L87.3192 36.427L87.0195 36.3551L86.7199 36.2951L86.4083 36.2352L86.1266 36.1752L85.827 36.1152L85.5094 36.0673L85.1618 36.0313L84.8022 35.9833L84.4247 35.9474L84.0351 35.9114L83.6336 35.8814L83.2141 35.8514L82.7826 35.8214L82.3392 35.7975L81.4283 35.7615L80.9488 35.7435L80.4694 35.7315H79.99L78.9892 35.7195L78.4918 35.7255H77.9824L76.4422 35.7435L75.9328 35.7615L75.4175 35.7795L74.9021 35.7915L74.3987 35.8214L73.8893 35.8394L73.3859 35.8754L72.8945 35.9054L72.3971 35.9414L71.9177 35.9713L70.9768 36.0553L70.5213 36.0973L70.0719 36.1452L69.6404 36.1932L68.8014 36.3131L68.4119 36.3731L66.3623 36.6849L65.5233 41.3797L64.6484 46.0746L68.7235 50.8354L69.3467 51.5849L69.964 52.3224L70.5633 53.042L71.1506 53.7615L71.7199 54.481L72.2772 55.1885L72.8166 55.8841L73.344 56.5736L73.8653 57.2512L74.3687 57.9287L74.8601 58.5883L75.3396 59.2478L75.807 59.9074L76.2565 60.549L76.6939 61.1905L77.5329 62.4497L77.9344 63.0673L78.324 63.6789L78.6955 64.2785L79.0551 64.8781L79.4027 65.4657L79.7383 66.0533L80.0619 66.6229L80.3735 67.1985L80.6732 67.7681L80.9608 68.3258L81.2305 68.8774L81.4882 69.417L81.7399 69.9567L81.9796 70.4963L82.2013 71.024L82.4171 71.5636L82.6148 72.0793L82.8066 72.5949L82.9864 73.1106L83.1542 73.6142L83.304 74.1119L83.4418 74.6096L83.5317 74.9214L83.6037 75.2212L83.6875 75.521L83.7475 75.8088L83.8074 76.0846L83.8673 76.3544L83.9273 76.6182L83.9752 76.8821L84.0231 77.1219L84.0591 77.3618L84.101 77.6016L84.125 77.8414L84.149 78.0633L84.167 78.2851L84.179 78.501L84.1909 78.7049V79.1066L84.173 79.4903L84.155 79.6702L84.131 79.8501L84.101 80.03L84.0291 80.3777L83.9812 80.5396L83.9213 80.7075L83.8014 81.0193L83.7295 81.1752L83.6576 81.3251L83.5797 81.481L83.4958 81.6309L83.316 81.9307L83.2141 82.0746L83.1062 82.2185L82.9864 82.3624L82.8665 82.5003L82.7467 82.6442L82.5669 82.8421L82.3871 83.022L82.1953 83.2018L81.9916 83.3577L81.7818 83.5016L81.5661 83.6396L81.3384 83.7595L81.0986 83.8794L80.8589 83.9813L80.6072 84.0653L80.3495 84.1432L79.7982 84.2631L79.4986 84.3051L79.1989 84.3351H78.8993H78.2521L77.9165 84.3111L77.5749 84.2871L77.2153 84.2392L76.8557 84.1792L76.4842 84.1192L76.0887 84.0413L75.6991 83.9513L75.2916 83.8554L74.4526 83.6156L74.0151 83.4837L73.5657 83.3338L73.1042 83.1779L72.6368 82.998L72.1574 82.8181L71.666 82.6262L71.1626 82.4224L70.6472 82.2005L69.5685 81.7208L69.0171 81.463L68.4598 81.1932L68.2621 81.1033L68.0583 81.0013L67.8366 80.8814L67.5969 80.7615L67.3452 80.6296L67.0875 80.4797L66.8178 80.3298L66.5421 80.1739L66.2545 80.006L65.3555 79.4663L65.0559 79.2745L64.7383 79.0946L64.115 78.7049L63.7974 78.513L63.4798 78.3151L63.1801 78.1113L62.8685 77.9194L62.2692 77.5356L61.9696 77.3378L61.6879 77.1579L61.4123 76.978L61.1426 76.7981L60.8909 76.6182L60.6512 76.4504L60.4115 76.2885L60.1957 76.1446L59.992 75.9947L59.8122 75.8568L59.6324 75.7368L59.4826 75.6169L59.3507 75.515L59.2429 75.413L59.147 75.3351L59.0871 75.2631L59.0391 75.2032L59.0151 75.1612L59.0211 75.1372L59.0331 75.1013L59.0631 75.0713V75.0473L59.099 75.0113L59.159 74.9693L59.2788 74.8734L59.3148 74.8494L59.3567 74.8194L59.3927 74.7955L59.4346 74.7715L59.4766 74.7415L59.5245 74.7115L59.5725 74.6875L59.6144 74.6576L59.7103 74.5976L59.7702 74.5676L59.8302 74.5436L59.8781 74.5077L60.1178 74.3877L60.1778 74.3518L60.2377 74.3218L60.2976 74.2978L60.4295 74.2378L60.5493 74.1779L62.1194 73.5183L67.5909 76.7262L68.1422 77.038L68.6815 77.3378L69.2089 77.6376L69.7303 77.9194L70.2337 78.1832L70.7311 78.441L71.6899 78.9207L72.1574 79.1426L72.6008 79.3464L73.0443 79.5443L73.4758 79.7242L73.8953 79.8921L74.3028 80.054L74.6983 80.1979L75.0759 80.3298L75.4534 80.4497L75.813 80.5576L76.1606 80.6536L76.4962 80.7375L76.8198 80.8095L77.1314 80.8694L77.4311 80.9174L77.7187 80.9594L77.9944 80.9773H78.2521H78.5098L78.7495 80.9594L78.9772 80.9354L79.1869 80.8994L79.3907 80.8394L79.5825 80.7795L79.7623 80.7015L79.9241 80.6116L80.0739 80.5097L80.2117 80.4017L80.3316 80.2698L80.4394 80.1319L80.5353 79.976L80.6672 79.7122L80.7631 79.4124L80.823 79.0946L80.8589 78.7348L80.8709 78.3571L80.8529 77.9374L80.805 77.5057L80.7331 77.038L80.6252 76.5583L80.5054 76.0426L80.3495 75.503L80.1698 74.9454L79.96 74.3637L79.7323 73.7641L79.4746 73.1406L79.1929 72.499L78.8933 71.8394L78.5637 71.1559L78.2041 70.4544L77.8266 69.7468L77.4311 69.0093L77.0116 68.2658L76.5681 67.5043L76.1066 66.7248L75.1238 65.1359L74.6024 64.3264L74.0631 63.505L73.5058 62.6655L72.9245 61.8261L71.7079 60.1232L71.0787 59.2658L70.4195 58.3904L69.7603 57.521L69.0711 56.6336L68.3759 55.7522L67.6568 54.8647L66.9257 53.9773L66.1885 53.0779L63.6895 50.1399L62.461 54.6609L62.0175 56.2618L61.5621 57.8508L61.0947 59.4217L60.6152 60.9627L60.1358 62.4917L59.6324 63.9907L59.129 65.4657L58.6076 66.9227L58.0803 68.3498L57.5529 69.7588L57.0135 71.1379L56.4742 72.487L55.9229 73.8061L55.3595 75.0893L54.8022 76.3484L54.2329 77.5776L53.6576 78.7648L53.0823 79.922L52.495 81.0493L51.9197 82.1406L51.3324 83.1839L50.7451 84.2032L50.1578 85.1805L49.5705 86.1159L48.9712 87.0153L48.3899 87.8667L47.8026 88.6762L47.2213 89.4437L46.634 90.1632L46.0527 90.8408L45.4774 91.4703L44.9081 92.052L44.3328 92.5796L43.7694 93.0593L43.2121 93.497L42.6608 93.8807L42.1094 94.2105L41.5701 94.4863L41.0427 94.7082L40.5154 94.8761L40.3955 94.906L40.1438 94.954L40.012 94.966L39.7543 94.99H39.3468L39.2089 94.978L39.0651 94.966L38.9273 94.948L38.7894 94.924L38.5078 94.8641L38.3699 94.8281L38.2261 94.7921L38.0883 94.7442L37.9504 94.7022L37.6688 94.5943L37.2493 94.4144L36.9856 94.2825L36.8477 94.2105L36.4582 93.9707L36.3384 93.8867L35.9788 93.6169L35.6372 93.3171L35.5293 93.2152L35.3256 92.9873L35.2177 92.8674L35.0979 92.7175L34.99 92.5616L34.8881 92.3937L34.7682 92.2138L34.6664 92.022L34.5585 91.8241L34.4506 91.6082L34.2469 91.1526L34.0431 90.6609L33.9472 90.4031L33.7555 89.8634L33.5637 89.2998L33.4798 89L33.3899 88.7002L33.2221 88.0886L33.0663 87.453L32.9884 87.1292L32.8505 86.4697L32.7187 85.7981L32.6588 85.4623L32.5509 84.7908L32.503 84.449L32.4191 83.7775L32.3891 83.4417L32.3292 82.7641L32.2812 82.1046L32.2752 81.7808L32.2633 81.541L32.2513 81.2771V78.2911L32.2692 77.5356L32.2752 77.1519L32.2872 76.7681L32.2932 76.3784L32.3292 75.2272L32.3591 74.4777L32.3771 74.1179L32.3891 73.7582L32.4071 73.4104L32.4191 73.0746L32.443 72.7508L32.479 72.1512L32.497 71.8694L32.5149 71.6116L32.5329 71.3717L32.5509 71.1499L32.5749 70.946L32.5929 70.7661L32.6108 70.6103L32.6348 70.4783L32.6528 70.3704L32.6708 70.2925L32.6887 70.2445L32.7067 70.2205L32.7187 70.2265L32.7307 70.2205L32.7487 70.2325H32.7666L32.7846 70.2445L32.8026 70.2505L32.8625 70.2805L32.8805 70.2985L32.9764 70.3584L33.0064 70.3764L33.0783 70.4244L33.1202 70.4484L33.1622 70.4783L33.342 70.5983L33.4019 70.6342L33.4438 70.6642L33.5038 70.7002L33.5637 70.7422L33.6116 70.7721L33.7315 70.8561L33.7914 70.8921L33.9712 71.012L34.151 71.1439L34.2708 71.2278L34.3907 71.3238L35.8889 72.433L35.7451 75.9707L35.7271 76.3544L35.7211 76.7502V77.1399L35.7091 77.9194V78.6989L35.7271 79.8561L35.7511 80.6236L35.769 81.0013L35.781 81.3731L35.805 81.7328L35.829 82.1046L35.9009 83.1839L35.9608 83.8674L35.9968 84.2032L36.0267 84.533L36.1046 85.1685L36.1885 85.7801L36.2365 86.0679L36.2784 86.3497L36.3264 86.6256L36.3743 86.8834L36.4342 87.1472L36.4942 87.3871L36.5421 87.6269L36.602 87.8488L36.662 88.0646L36.7219 88.2685L36.8418 88.6282L36.9616 88.958L37.0935 89.2698L37.2133 89.5696L37.3452 89.8394L37.483 90.0913L37.6268 90.3191L37.7706 90.535L37.9145 90.7268L38.0703 90.9067L38.2261 91.0626L38.3939 91.1945L38.5557 91.3144L38.7235 91.4044L38.9033 91.4823L39.0831 91.5303L39.2629 91.5663L39.4426 91.5783H39.6404L39.8382 91.5483L40.0419 91.5003L40.2577 91.4284L40.4674 91.3444L40.6951 91.2365L40.9229 91.1046L41.1626 90.9607L41.4023 90.7808L41.654 90.5889L41.9057 90.3791L42.1694 90.1392L42.433 89.8874L42.7027 89.6116L42.9844 89.3118L43.272 88.994L43.5717 88.6582L43.8713 88.2985L44.171 87.9207L44.4886 87.519L44.8182 87.0992L45.1478 86.6615L45.4894 86.1998L45.8489 85.6782L46.2265 85.1386L46.598 84.5689L46.9756 83.9873L47.3472 83.3757L47.7247 82.7462L48.1082 82.0866L48.4858 81.4091L48.8693 80.7195L49.2469 80L49.6244 79.2625L50.008 78.507L50.7571 76.948L51.1346 76.1386L51.5122 75.3171L51.8897 74.4777L52.2672 73.6262L52.6388 72.7508L53.0104 71.8694L53.3699 70.97L53.7295 70.0586L54.0891 69.1352L54.4486 68.1999L55.1678 66.2811L55.5273 65.3098L55.8689 64.3264L56.2165 63.3431L56.5581 62.3418L56.8937 61.3404L57.2233 60.3211L57.5469 59.3018L57.8645 58.2825L58.1762 57.2452L58.4878 56.2019L58.7874 55.1586L59.0871 54.1093L59.6624 51.9987L60.9808 47.0999L57.9245 44.012L56.3663 42.453L56.1266 42.2252L56.0187 42.1052L55.8989 41.9973L55.779 41.8774L55.6712 41.7755L55.5633 41.6555L55.3475 41.4457L55.2517 41.3438L54.8561 40.972L54.7722 40.8881L54.6883 40.7981L54.5205 40.6422L54.4486 40.5643L54.3767 40.4923L54.3048 40.4324L54.125 40.2525L54.0651 40.2045L52.7826 39.0353L41.7259 42.2851L40.839 42.5609L39.964 42.8248L39.107 43.1006L38.268 43.3644L37.441 43.6342L36.626 43.8981L35.823 44.1679L35.0319 44.4377L34.2529 44.7075L32.7427 45.2352L32.0056 45.511L31.2864 45.7748L30.5673 46.0446L29.8601 46.3204L29.171 46.5903L28.4878 46.8661L27.8106 47.1479L26.4922 47.6995L25.845 47.9813L25.2097 48.2631L24.5805 48.545L23.346 49.1206L22.1474 49.7202L20.9728 50.3198L19.8222 50.9314L19.2529 51.2432L18.6955 51.543L18.1382 51.8667L16.9576 52.4544L16.4183 52.7841L15.8789 53.1199L15.3635 53.4377L14.8721 53.7555L14.3927 54.0733L13.9372 54.3851L13.5058 54.6849L13.0863 54.9847L12.6788 55.2845L12.3012 55.5843L11.9416 55.8721L11.5941 56.1719L11.2704 56.4597L10.9708 56.7355L10.6831 57.0173L10.4135 57.2871L10.1738 57.557L9.93405 57.8208L9.7243 58.0786L9.53253 58.3364L9.35275 58.5883L9.19693 58.8281L9.06509 59.0679L8.94524 59.3078L8.84935 59.5476L8.77144 59.7755L8.71152 59.9913L8.66957 60.2072L8.6456 60.417V60.6269L8.66357 60.8248L8.70552 61.0226L8.76545 61.2025L8.84336 61.3824L8.94524 61.5623L9.06509 61.7422L9.20293 61.91L9.35874 62.0659L9.53852 62.2158L9.73629 62.3657L9.95203 62.5096L10.1917 62.6416L10.3715 62.7375L10.5633 62.8274L10.773 62.9174L10.9888 63.0073L11.2105 63.0853L11.4502 63.1692L11.7019 63.2472L11.9536 63.3191L12.2233 63.3971L12.505 63.469L12.7926 63.529L13.3919 63.6489L13.7035 63.7088L14.0271 63.7688L14.3627 63.8288L14.7043 63.8767L15.0519 63.9247L15.4115 63.9727L15.771 64.0146L16.5201 64.0926L16.9037 64.1226L17.6947 64.1825L18.0963 64.2065L18.5038 64.2245L18.9233 64.2485L19.3428 64.2605L19.7742 64.2725L20.6372 64.2845H21.9676L22.4171 64.2725L22.8725 64.2665L23.328 64.2545L23.7894 64.2365L24.2569 64.2125L24.3408 64.2065L24.4307 64.2005H24.5146L24.6044 64.1945L24.7722 64.1825L24.94 64.1765H25.0299H25.3655H25.4434L25.5273 64.1705L25.839 64.1645L25.9109 64.1585H26.0667L26.1266 64.1526H26.2704L26.3304 64.1466H26.3903L26.5102 64.1406L26.5701 64.1346L26.63 64.1406H26.678L26.7259 64.1346H27.0255L27.0855 64.1526L27.1454 64.1765L27.2053 64.2125L27.2653 64.2545L27.3372 64.3025L27.4091 64.3624L27.493 64.4224L27.5829 64.4823L27.6668 64.5543L27.7567 64.6382L27.8525 64.7282L28.2301 65.1059L28.326 65.2079L28.6136 65.5316L28.7095 65.6516L28.8893 65.8734L28.9732 65.9813L29.141 66.1912L29.2129 66.2991L29.2848 66.4011L29.4167 66.5929L29.4766 66.6889L29.5365 66.7728L29.6144 66.9287L29.6444 67.0007L29.6684 67.0606L29.6863 67.1206L29.6923 67.1805V67.2225L29.6804 67.2585L29.6624 67.2765L29.5126 67.3184H29.4646L29.3448 67.3304L29.165 67.3664H29.0871L28.9193 67.3844L28.8354 67.3964L28.7395 67.4024L28.6436 67.4144H28.5417L28.332 67.4324L28.1102 67.4564L27.9904 67.4623L27.8705 67.4803L27.499 67.5043L27.3671 67.5163L27.0975 67.5403H26.9596L26.8218 67.5523L26.3903 67.5763H26.2405L26.1026 67.5823L25.9528 67.5943L25.3356 67.6242L24.7363 67.6602L24.137 67.6782L23.5497 67.7022L22.9684 67.7202L21.8298 67.7322H20.7331L20.1937 67.7202H19.6544L19.133 67.6962L18.6116 67.6782L17.6108 67.6182L17.1194 67.5763L16.64 67.5403L16.1606 67.4923L15.2377 67.3844L14.3507 67.2645L13.9313 67.2045L13.0923 67.0486L12.6907 66.9647L12.2952 66.8747L11.9177 66.7848L11.5401 66.6829L10.821 66.479L10.4734 66.3591L10.1438 66.2392L9.82019 66.1192L9.50257 65.9993L9.19094 65.8674L8.8913 65.7295L8.60365 65.5976L8.32798 65.4537L8.0583 65.2978L7.81859 65.1599L7.57888 65.01L7.35115 64.8601L7.1414 64.7102L6.93764 64.5603L6.73988 64.3984L6.38031 64.0866L6.21251 63.9247L6.06269 63.7628L5.91887 63.5949L5.78103 63.427L5.54132 63.0673L5.43345 62.8874L5.33756 62.7075L5.25367 62.5276L5.17576 62.3478L5.11583 62.1679L5.01395 61.7901L4.98399 61.5983L4.95402 61.4004L4.93605 61.1965L4.93005 60.9987L4.93605 60.7888L4.94803 60.5789L4.972 60.3751L5.00197 60.1592L5.04392 59.9434L5.09186 59.7215L5.15179 59.4997L5.2237 59.2778L5.30161 59.05L5.3915 58.8101L5.49338 58.5703L5.60125 58.3304L5.84096 57.8508L5.9728 57.6109L6.41627 56.9094L6.65598 56.5676L6.91967 56.2079L7.20133 55.8601L7.50097 55.5003L7.81859 55.1406L8.50177 54.433L8.87332 54.0733L9.25686 53.7135L9.66437 53.3538L10.0839 52.994L10.5213 52.6342L10.9768 52.2745L11.9356 51.555L12.439 51.1952L12.9784 50.8354L14.0751 50.1159L14.6504 49.7562L15.2497 49.3964L15.8609 49.0366L16.4842 48.6769L17.1314 48.3171L17.7906 47.9574L18.4678 47.5976L19.157 47.2378L19.8761 46.8781L20.6072 46.5183L21.3444 46.1586L22.1054 45.7988L22.8845 45.439L23.6756 45.0793L24.4846 44.7195L25.3116 44.3597L26.1506 44L27.0076 43.6402L27.8825 43.2805L28.272 43.1186L28.6915 42.9507L29.153 42.7708L30.1538 42.3991L30.6931 42.1952L31.8318 41.7755L32.4311 41.5656L33.0483 41.3438L33.6895 41.1219L34.3308 40.8941L34.99 40.6722L35.6492 40.4444L36.3204 40.2165L37.0036 39.9887L37.6808 39.7608L39.0351 39.3111L42.3012 38.2558L42.9245 38.0639L43.5237 37.8841L44.099 37.7042L45.1957 37.3744L45.7051 37.2245L46.1845 37.0866L46.634 36.9667L47.0535 36.8468L47.431 36.7448L47.7786 36.6609L48.0783 36.5829L48.342 36.523L48.5637 36.475L48.7435 36.445L48.8753 36.439L49.8042 36.421L48.8633 35.5096L48.7075 35.3657L48.5277 35.1979L48.336 35.03L48.1202 34.8501L47.8925 34.6462L47.6528 34.4364L47.3831 34.2085L47.1074 33.9687L46.8078 33.7288L46.5082 33.477L46.1845 33.2192L45.8609 32.9494L45.5134 32.6735L44.7942 32.1099L44.4346 31.8221L43.6676 31.2225L43.278 30.9227L42.487 30.3111L41.6839 29.6995L41.2645 29.3997L40.8629 29.0999L40.4554 28.8001L39.6524 28.2005L39.2569 27.9007L38.8613 27.6129L38.4718 27.3311L38.0883 27.0553L37.7107 26.7795L37.3511 26.5216L36.9916 26.2698L36.644 26.018L36.3084 25.7781L35.9728 25.5503L35.6612 25.3344L35.3495 25.1306L34.4267 24.531L33.9592 24.2312L33.5038 23.9434L32.5809 23.3917L32.1194 23.1219L31.664 22.8641L30.7531 22.3604L30.3036 22.1206L29.8601 21.8807L29.4167 21.6529L28.9852 21.437L28.1222 21.0293L27.7027 20.8374L26.8757 20.4777L26.4742 20.3158L26.0787 20.1539L25.6891 20.004L25.3056 19.8661L24.946 19.7342L24.2269 19.4943L23.8793 19.3924L23.5497 19.3025L23.2261 19.2185L22.9085 19.1466L22.6088 19.0866L22.3212 19.0386L22.0335 18.9967L21.7698 18.9667L21.5122 18.9487H21.0447L20.829 18.9667L20.6252 18.9907L20.4454 19.0326L20.2357 19.0926L20.0379 19.1765L19.8581 19.2965L19.6963 19.4284L19.5585 19.5783L19.4386 19.7462L19.3308 19.938L19.2409 20.1479L19.163 20.3757L19.103 20.6276L19.0671 20.8914L19.0431 21.1792L19.0371 21.479L19.0491 21.7968L19.0791 22.1326L19.115 22.4923L19.175 22.8641L19.2469 23.2418L19.3368 23.6436L19.4446 24.0633L19.5645 24.501L19.6963 24.9387L20.0259 25.8801L20.2057 26.3597L20.4035 26.8574L20.6192 27.3731L20.8589 27.9007L21.0987 28.4404L21.3563 28.98L21.638 29.5436L21.9257 30.1072L22.2253 30.6889L22.5429 31.2765L22.8785 31.8761L23.2261 32.4877L23.5857 33.1052L23.9692 33.7288L24.3587 34.3644L24.7603 35.006L26.4382 37.6622L25.6891 39.3771L25.6592 39.449L25.5992 39.5809L25.5693 39.6589L25.5094 39.7968L25.4734 39.8567L25.4434 39.9287L25.4135 39.9887L25.3835 40.0606L25.3595 40.1206L25.2996 40.2405L25.2756 40.3005L25.2157 40.4204L25.1977 40.4803L25.1678 40.5403L25.1078 40.6842L25.0779 40.7322L25.0599 40.7741L24.982 40.93L24.9221 41.026L24.9101 41.05L24.8921 41.0739L24.8621 41.1339L24.8202 41.1759H24.7902L24.6943 41.0799L24.6224 41.002L24.5445 40.8941L24.4486 40.7741L24.3408 40.6302L24.2209 40.4623L24.0891 40.2825L23.9512 40.0846L23.6516 39.6349L23.4898 39.3951L23.322 39.1372L23.1422 38.8674L22.9504 38.5736L22.5729 37.974L22.1774 37.3564L21.5781 36.3971L21.3743 36.0613L21.1766 35.7315L20.9728 35.4077L20.5833 34.7482L20.3855 34.4244L20.2057 34.1066L20.014 33.7888L19.6664 33.1892L19.4986 32.8894L19.3368 32.6076L19.1869 32.3318L19.0371 32.0739L18.9053 31.8341L18.6656 31.3784L18.5098 31.0906L18.3599 30.7908L18.2161 30.491L17.9285 29.8794L17.7966 29.5676L17.5269 28.938L17.1674 27.9787L17.0475 27.6549L16.9396 27.3371L16.8198 27.0193L16.616 26.3837L16.5201 26.0599L16.3404 25.4364L16.1726 24.8188L16.0287 24.2192L15.9688 23.9194L15.849 23.3438L15.801 23.0619L15.7171 22.5223L15.6812 22.2645L15.6572 22.0126L15.6332 21.7728L15.6212 21.533V21.3051L15.6152 21.0893L15.6212 20.8734V20.6755L15.6572 20.3038L15.6871 20.1419L15.7471 19.8421L15.789 19.6982L15.837 19.5543L15.8849 19.4044L15.9329 19.2665L16.0527 18.9787L16.1726 18.7028L16.3164 18.427L16.3883 18.3071L16.5501 18.0433L16.634 17.9234L16.8977 17.5636L16.9936 17.4437L17.1853 17.2218L17.2872 17.1199L17.3891 17.012L17.491 16.916L17.5989 16.8141L17.8206 16.6342L17.9285 16.5503L18.0483 16.4663L18.1562 16.3884L18.3839 16.2445L18.7435 16.0646L18.9832 15.9687L19.2229 15.8907L19.6604 15.8008L20.1218 15.7408L20.6012 15.6989L21.1166 15.6929L21.656 15.7108L22.2193 15.7708L22.7946 15.8488L23.3939 15.9687L24.0171 16.1006L24.6584 16.2625L25.3296 16.4603L26.0128 16.6762L26.7139 16.928L27.433 17.1919L28.1762 17.4917L28.9313 17.8154L29.7103 18.1752L30.4894 18.5529L31.2924 18.9487L32.1134 19.3684L32.9404 19.8121L33.7794 20.2798L34.6364 20.7775L35.5054 21.2931L36.3803 21.8328L37.2672 22.3964L38.1662 22.984L39.0651 23.5836L39.982 24.2132L40.9049 24.8607L41.8338 25.5323L42.7686 26.2218L43.7155 26.9234L44.6624 27.6549L45.6212 28.4044L46.5801 29.1719L47.5389 29.9513L48.4978 30.7548L49.4566 31.5763L50.4155 32.4157L53.6636 35.3058L58.1282 34.3764L58.7994 34.2565L59.4406 34.1366L59.7523 34.0766L60.2017 33.9867L60.3456 33.9687L60.6212 33.9087L60.7531 33.8847L61.0108 33.8428L61.2505 33.8008L61.3703 33.7828L61.4782 33.7648L61.6879 33.7348L61.7838 33.7228L61.8737 33.7048L61.9636 33.6929L62.1254 33.6689L62.1973 33.6629H62.2573H62.5929L62.6408 33.6509L62.7007 33.6269L62.7487 33.6029L62.8086 33.5669L62.9045 33.471L62.9464 33.411L62.9944 33.3511L63.0363 33.2731L63.0783 33.1832L63.1142 33.0873L63.1622 32.9793L63.2041 32.8594L63.2401 32.7275L63.276 32.5896L63.312 32.4397L63.348 32.2778L63.3899 32.1099L63.4199 31.93L63.4558 31.7382L63.4858 31.5343L63.5217 31.3184L63.5517 31.0786L63.5877 30.8388L63.6176 30.5809L63.6476 30.3171L63.6835 30.0353L63.7135 29.7355L63.7375 29.4357L63.7674 29.1179L63.7974 28.7821L63.8274 28.4344L63.8573 28.0746L63.8873 27.6969L63.9113 27.3071L63.9412 26.8994L63.9712 26.4797L64.0012 26.042L64.0251 25.5923L64.0611 24.9327L64.0911 24.2731L64.115 23.6376L64.151 22.3784V20.5796L64.139 19.998L64.127 19.4224L64.0791 18.3131L64.0491 17.7735L64.0072 17.2458L63.9652 16.7302L63.9173 16.2265L63.8573 15.7348L63.7974 15.2551L63.7375 14.7935L63.6776 14.3438L63.5996 13.912L63.5277 13.4923L63.4438 13.0906L63.3539 12.7009L63.264 12.3291L63.1682 11.9693L63.0663 11.6276L62.9644 11.3038L62.8446 10.992L62.7247 10.7042L62.6048 10.4224L62.485 10.1705L62.3531 9.9307L62.2213 9.70884L62.0835 9.50498L61.9456 9.3251L61.8018 9.16321L61.652 9.0193L61.5022 8.89938L61.3404 8.79745L61.1845 8.7195L61.0048 8.65954L60.825 8.59359L60.6452 8.56361L60.4654 8.55162L60.2856 8.55761L60.1058 8.59359L59.9081 8.62357L59.7043 8.68353L59.5006 8.75548L59.2908 8.83942L58.8593 9.07926L58.6376 9.22317L58.4099 9.37906L58.1821 9.55894L57.9424 9.75082L57.7027 9.96068L57.463 10.1885L57.2233 10.4284L56.9836 10.6922L56.7199 10.968L56.4622 11.2558L56.1985 11.5556L55.9289 11.8854L55.6532 12.2212L55.3835 12.5809L55.1018 12.9527L54.8142 13.3364L54.5325 13.7561L54.2329 14.1759L53.9332 14.6076L53.6336 15.0693L53.334 15.537L53.0343 16.0166L52.7347 16.5203L52.4171 17.036L51.7818 18.1152L51.4582 18.6849L48.6296 23.6316L46.7718 23.8714L46.7119 23.8774L46.64 23.8834H46.5801H46.5082H46.4482H46.3883H46.3284H45.8489H45.801H45.7591L45.6991 23.8774H45.6572L45.6152 23.8714L45.4954 23.8474H45.4354L45.3755 23.8234H45.3515L45.2916 23.7875L45.2736 23.7755L45.2676 23.7575L45.2557 23.7455L45.2497 23.7215V23.7035L45.2617 23.6316L45.2796 23.5416L45.3156 23.4217L45.3575 23.2898L45.4175 23.1459L45.4774 22.978L45.5493 22.7981L45.6392 22.6062L45.7231 22.3844L45.825 22.1625L45.9328 21.9227L46.0527 21.6829L46.1726 21.425L46.2924 21.1612L46.4243 20.8914L46.5681 20.6096L46.8497 20.022L47.1494 19.4224L47.3052 19.1226L47.461 18.8108L47.9404 17.8994L48.1082 17.5996L48.27 17.2998L48.4259 17L48.5937 16.7002L48.9053 16.1366L49.0611 15.8667L49.2109 15.6029L49.3607 15.3511L49.5106 15.1112L49.6484 14.8714L49.7802 14.6555L49.9121 14.4517L50.0319 14.2538L50.1518 14.0739L50.4155 13.6842L50.9428 12.9227L51.2005 12.5629L51.7159 11.8554L52.2133 11.1959L52.465 10.8721L53.1961 9.95468L53.4358 9.66687L53.6756 9.39106L53.9153 9.12124L54.155 8.86341L54.6224 8.37174L54.8621 8.1319L55.3176 7.68819L55.5453 7.48433L55.9888 7.08859L56.4323 6.72883L56.654 6.56094L56.8697 6.39905L57.1094 6.19519L57.5289 5.92537L57.7447 5.80545L57.9544 5.68553L58.1642 5.5776L58.3679 5.48166L58.5837 5.39172L58.7814 5.30178L58.9852 5.22983L59.1889 5.16987L59.3867 5.10991L59.6384 5.04995L59.7702 5.02597L59.8901 5.01397L60.0219 5.00198L60.2856 4.98999H60.4235L60.5613 4.99599L60.6931 5.00798L60.7051 5.01397ZM60.9448 37.3744L60.2497 37.5123L59.5006 37.6922L58.7814 37.9021L58.1821 38.1059L57.7267 38.2858L57.457 38.4417L57.4091 38.5616L58.0923 39.3231L59.111 40.3724L60.2017 41.4397L61.0887 42.2611L61.5082 42.5849L61.604 42.429L61.7359 42.0513L61.8917 41.4817L62.0715 40.7621L62.2393 39.9407L62.4071 38.9993L62.497 38.2618V37.7402L62.4191 37.4044L62.2573 37.2605L61.9936 37.2365L61.5441 37.2725L60.9448 37.3624V37.3744ZM31.7599 37.3144L29.159 38.3218L29.938 36.8707C30.9448 34.97 33.4139 32.1759 35.4754 30.6109C35.5833 30.521 36.1226 30.0953 37.1054 29.3218L38.4958 30.3051C39.2569 30.8448 39.9041 31.3664 39.934 31.5043C39.964 31.6122 39.4366 32.1039 38.7714 32.5236C38.0763 32.9793 36.8058 34.0226 35.9368 34.8381C34.8342 35.9174 33.6236 36.6249 31.7599 37.3204V37.3144ZM46.6819 72.475C40.2097 71.6116 34.0012 67.6782 30.2796 62.042C28.7035 59.6316 26.8038 54.2771 26.6839 51.9387C26.612 50.5296 26.7259 50.3797 28.1402 49.7202C28.9792 49.3424 29.7103 49.0606 29.7942 49.0846C29.8541 49.1446 30.0939 50.5116 30.2736 52.1785C30.9328 57.551 34.3008 62.8994 38.9992 65.9394C41.5881 67.6542 45.3515 68.9374 48.0963 69.0933C49.163 69.1532 50.0739 69.3331 50.0919 69.453C50.1338 69.6029 49.8342 70.3764 49.4326 71.2218L48.7255 72.7808L46.67 72.481L46.6819 72.475ZM49.2589 26.4737C48.0903 25.3104 54.8322 26.1739 58.4099 27.6729C60.4594 28.5123 60.6152 28.6322 60.4714 29.5616C60.3635 30.3411 56.8937 30.6829 54.8022 30.1132C53.304 29.7055 50.9488 28.1585 49.2589 26.4797V26.4737ZM64.109 62.7075C65.0499 61.7122 66.0687 60.429 66.3264 59.9494C66.9616 58.6902 67.2253 58.6902 67.9804 59.7335C68.316 60.2611 68.7894 60.8727 69.0231 61.2025C69.3228 61.5863 69.0291 62.2039 68.0463 63.481C65.6672 66.5989 60.2317 70.7841 60.6871 69.1412C61.5142 66.443 62.6048 64.3144 64.115 62.7135L64.109 62.7075ZM71.0008 48.0473C69.8382 46.6083 69.2629 45.481 68.8613 43.958C67.8545 40.1985 69.4007 36.7148 70.803 39.479C71.5941 40.978 72.7686 45.6729 72.9424 47.9154C73.0443 49.0126 72.9904 49.954 72.8825 49.99C72.7387 50.026 71.9237 49.1206 71.0068 48.0473H71.0008Z" fill="url(#paint0_linear_2004_100)"/>
</g>
<path d="M60.7051 5.01397L60.9808 5.04995L61.2625 5.09792L61.4063 5.1279L61.5441 5.15788L61.6819 5.19985L61.8258 5.24182L62.1074 5.33776L62.2453 5.39772L62.3891 5.45768L62.6588 5.5776L62.7966 5.63756L63.0603 5.78146L63.324 5.93736L63.7015 6.19519L64.0611 6.483L64.2888 6.68686L64.5046 6.90272L64.6064 7.02264L64.6664 7.09459L64.7263 7.17254L64.7862 7.24449L64.8462 7.32843L64.9061 7.40038L65.0259 7.55628L65.0859 7.64022L65.1458 7.71817L65.2477 7.88006L65.3555 8.05994L65.4514 8.23982L65.5473 8.4317L65.5953 8.53363L65.6851 8.74948L65.7271 8.8694L65.787 8.98932L65.829 9.10924L65.8769 9.22916L65.9189 9.36707L65.9668 9.50498L66.0088 9.64289L66.1046 9.94269L66.1526 10.0986L66.2005 10.2665L66.2605 10.4464L66.638 11.8554L66.6979 12.0953L66.7818 12.419L66.8597 12.7488L67.0036 13.4264L67.0635 13.7741L67.1354 14.1159L67.1953 14.4757L67.3032 15.1952L67.3631 15.5549L67.4111 15.9327L67.453 16.3044L67.495 16.6882L67.5309 17.0719L67.5669 17.4617L67.5969 17.8514L67.6208 18.2531L67.6508 18.6549L67.7107 19.8901L67.7347 21.6109L67.7167 22.948L67.6807 23.8654L67.6688 24.3331L67.6388 24.8008L67.6148 25.2805L67.5549 26.2398L67.513 26.7315L67.477 27.2232L67.3212 28.902L67.3092 29.0579L67.2912 29.2138L67.2792 29.3757L67.2553 29.6875L67.2313 29.9873L67.2193 30.1312L67.2013 30.419L67.1893 30.551L67.1833 30.6889V30.8268L67.1714 30.9467L67.1654 31.0786V31.3184L67.1474 31.5403V31.6422L67.1414 31.7502L67.1294 31.942V32.1219V32.1999V32.3498L67.1234 32.4697L67.1294 32.5296V32.5776V32.6256V32.6615V32.6915V32.7215L67.1354 32.7395L67.1414 32.7515H67.1474H67.1594L67.1774 32.7575H67.5789L67.6568 32.7515H67.7407H67.8306H67.9265L68.1302 32.7395L68.3519 32.7275L68.4718 32.7215H68.7235L68.9992 32.6975H69.143L69.2808 32.6855L69.4306 32.6735L69.5865 32.6615L69.7483 32.6496H69.9101L70.0659 32.6376L70.2337 32.6256L70.4135 32.6076L70.5933 32.5956H70.7611L71.1206 32.5716L71.3004 32.5536L71.672 32.5236L71.8517 32.5056L72.6907 32.4457L73.5118 32.3857L74.3268 32.3378L75.9089 32.2778L76.6879 32.2598L77.443 32.2478H78.1921H78.9233L79.6424 32.2598L80.3436 32.2778L81.7039 32.3378L82.3631 32.3857L83.0044 32.4337L83.6336 32.4937L84.2509 32.5536L84.8501 32.6256L85.4314 32.7035L85.9948 32.7935L86.5521 32.8894L87.0795 32.9913L87.6009 33.1112L88.0983 33.2312L88.5777 33.3511L89.0451 33.483L89.4946 33.6269L89.9261 33.7708L90.3456 33.9267L90.7471 34.0886L91.1246 34.2565L91.4842 34.4364L91.8318 34.6162L92.1554 34.8081L92.455 35.006L92.7547 35.2158L93.0243 35.4257L93.276 35.6416L93.5038 35.8694L93.7195 36.1092L93.8034 36.2112L93.9652 36.409L94.0371 36.505L94.109 36.6069L94.169 36.7088L94.2289 36.8048L94.3488 36.9847L94.4087 37.0866L94.5585 37.3684L94.6064 37.4643L94.6484 37.5543L94.6843 37.6562L94.7802 37.938L94.8402 38.1359L94.8761 38.3338L94.8941 38.4297L94.9061 38.5376L94.9181 38.6336V38.7355L94.9301 38.9514V39.0593L94.9181 39.2751L94.9121 39.3951L94.9001 39.515L94.8941 39.6349L94.8581 39.8747L94.8342 39.9947L94.8102 40.1266L94.7922 40.2465L94.7443 40.4563L94.6843 40.6662L94.6124 40.8821L94.5345 41.0979L94.4446 41.3198L94.3428 41.5476L94.2349 41.7695L94.115 42.0093L93.9832 42.2372L93.8394 42.477L93.6895 42.7168L93.5337 42.9567L93.1742 43.4364L92.7906 43.928L92.5749 44.1679L92.3651 44.4197L91.658 45.1632L91.4063 45.421L90.8789 45.9247L90.6032 46.1825L90.0279 46.6862L89.7283 46.944L89.111 47.4477L88.7934 47.7055L88.4638 47.9454L87.445 48.6949L87.0855 48.9347L86.3543 49.4144L85.9828 49.6542L85.6052 49.8941L85.3775 50.038L85.1378 50.1819L84.8861 50.3318L84.6344 50.4877L84.3647 50.6436L84.0891 50.7995L83.5138 51.1232L83.2141 51.3031L82.9145 51.465L82.6148 51.6329L82.3152 51.8128L81.6979 52.1486L81.3863 52.3105L81.0867 52.4783L80.775 52.6402L80.1758 52.958L79.8761 53.1139L79.5765 53.2638L79.2888 53.4137L78.7375 53.6895L78.2221 53.9414L77.9704 54.0613L77.7427 54.1812L77.5209 54.2831L77.3112 54.3851L77.1194 54.475L76.9396 54.553L76.7778 54.6129L76.622 54.6729L76.5022 54.7328L76.3823 54.7688L76.2804 54.8048L76.2085 54.8228L76.1486 54.8348L76.1186 54.8228L76.0947 54.7988L76.0707 54.7628L76.0527 54.7148L76.0347 54.6549L76.0227 54.5949L76.0167 54.517L76.0048 54.433V54.3431L76.0108 54.2412V54.1212L76.0167 54.0133L76.0287 53.8934L76.0347 53.7735L76.0647 53.5097L76.0827 53.3777L76.1426 52.958L76.1666 52.8141L76.2265 52.5323L76.2565 52.3884L76.3164 52.1186L76.3523 51.9867L76.3823 51.8548L76.4243 51.7348L76.4542 51.6149L76.4962 51.495L76.5381 51.3871L76.61 51.1952L76.646 51.1053L76.6879 51.0273L76.7299 50.9554L76.7658 50.8954L76.8078 50.8354L76.8438 50.7995L76.8797 50.7695L76.9396 50.7455L76.9996 50.7155L77.0295 50.6915L77.0715 50.6675L77.1074 50.6496L77.1494 50.6316L77.1973 50.6076L77.2932 50.5476L77.4011 50.4997L77.461 50.4637L77.5209 50.4397L77.6408 50.3677L77.8326 50.2718L77.9644 50.1999L78.1022 50.1219L78.2461 50.05L78.4678 49.93L78.5397 49.8881L78.6895 49.8101L78.7674 49.7681L78.9173 49.6902L79.0012 49.6542L79.0731 49.6122L79.151 49.5763L79.2289 49.5343L79.3068 49.4983L80.1278 49.0786L80.5293 48.8627L80.9308 48.6349L81.3264 48.419L81.7159 48.2032L82.0994 47.9813L82.8545 47.5316L83.2141 47.3158L83.9332 46.8661L84.2808 46.6382L84.6224 46.4224L84.964 46.1945L85.2936 45.9727L85.6172 45.7448L85.9349 45.529L86.2465 45.3071L86.8458 44.8634L87.1274 44.6536L87.4031 44.4317L87.6728 44.2158L87.9364 44L88.4398 43.5803L88.6796 43.3704L89.123 42.9627L89.5245 42.5609L89.8841 42.1712L90.0519 41.9793L90.2137 41.7995L90.3575 41.6196L90.4954 41.4397L90.6152 41.2598L90.831 40.912L90.9149 40.7442L90.9988 40.5643L91.0707 40.4024L91.1306 40.2405L91.1786 40.0786L91.2145 39.9227L91.2385 39.7668L91.2505 39.6109V39.3111L91.2325 39.1612L91.2025 39.0173L91.1606 38.8854L91.1126 38.7475L91.0527 38.6096L90.9808 38.4777L90.8969 38.3577L90.7051 38.1059L90.4654 37.8661L90.1778 37.6382L90.0219 37.5303L89.8541 37.4224L89.4946 37.2185L89.0871 37.0206L88.8653 36.9307L88.6256 36.8408L88.3859 36.7568L88.1342 36.6729L87.8765 36.5889L87.6009 36.505L87.3192 36.427L87.0195 36.3551L86.7199 36.2951L86.4083 36.2352L86.1266 36.1752L85.827 36.1152L85.5094 36.0673L85.1618 36.0313L84.8022 35.9833L84.4247 35.9474L84.0351 35.9114L83.6336 35.8814L83.2141 35.8514L82.7826 35.8214L82.3392 35.7975L81.4283 35.7615L80.9488 35.7435L80.4694 35.7315H79.99L78.9892 35.7195L78.4918 35.7255H77.9824L76.4422 35.7435L75.9328 35.7615L75.4175 35.7795L74.9021 35.7915L74.3987 35.8214L73.8893 35.8394L73.3859 35.8754L72.8945 35.9054L72.3971 35.9414L71.9177 35.9713L70.9768 36.0553L70.5213 36.0973L70.0719 36.1452L69.6404 36.1932L68.8014 36.3131L68.4119 36.3731L66.3623 36.6849L65.5233 41.3797L64.6484 46.0746L68.7235 50.8354L69.3467 51.5849L69.964 52.3224L70.5633 53.042L71.1506 53.7615L71.7199 54.481L72.2772 55.1885L72.8166 55.8841L73.344 56.5736L73.8653 57.2512L74.3687 57.9287L74.8601 58.5883L75.3396 59.2478L75.807 59.9074L76.2565 60.549L76.6939 61.1905L77.5329 62.4497L77.9344 63.0673L78.324 63.6789L78.6955 64.2785L79.0551 64.8781L79.4027 65.4657L79.7383 66.0533L80.0619 66.6229L80.3735 67.1985L80.6732 67.7681L80.9608 68.3258L81.2305 68.8774L81.4882 69.417L81.7399 69.9567L81.9796 70.4963L82.2013 71.024L82.4171 71.5636L82.6148 72.0793L82.8066 72.5949L82.9864 73.1106L83.1542 73.6142L83.304 74.1119L83.4418 74.6096L83.5317 74.9214L83.6037 75.2212L83.6875 75.521L83.7475 75.8088L83.8074 76.0846L83.8673 76.3544L83.9273 76.6182L83.9752 76.8821L84.0231 77.1219L84.0591 77.3618L84.101 77.6016L84.125 77.8414L84.149 78.0633L84.167 78.2851L84.179 78.501L84.1909 78.7049V79.1066L84.173 79.4903L84.155 79.6702L84.131 79.8501L84.101 80.03L84.0291 80.3777L83.9812 80.5396L83.9213 80.7075L83.8014 81.0193L83.7295 81.1752L83.6576 81.3251L83.5797 81.481L83.4958 81.6309L83.316 81.9307L83.2141 82.0746L83.1062 82.2185L82.9864 82.3624L82.8665 82.5003L82.7467 82.6442L82.5669 82.8421L82.3871 83.022L82.1953 83.2018L81.9916 83.3577L81.7818 83.5016L81.5661 83.6396L81.3384 83.7595L81.0986 83.8794L80.8589 83.9813L80.6072 84.0653L80.3495 84.1432L79.7982 84.2631L79.4986 84.3051L79.1989 84.3351H78.8993H78.2521L77.9165 84.3111L77.5749 84.2871L77.2153 84.2392L76.8557 84.1792L76.4842 84.1192L76.0887 84.0413L75.6991 83.9513L75.2916 83.8554L74.4526 83.6156L74.0151 83.4837L73.5657 83.3338L73.1042 83.1779L72.6368 82.998L72.1574 82.8181L71.666 82.6262L71.1626 82.4224L70.6472 82.2005L69.5685 81.7208L69.0171 81.463L68.4598 81.1932L68.2621 81.1033L68.0583 81.0013L67.8366 80.8814L67.5969 80.7615L67.3452 80.6296L67.0875 80.4797L66.8178 80.3298L66.5421 80.1739L66.2545 80.006L65.3555 79.4663L65.0559 79.2745L64.7383 79.0946L64.115 78.7049L63.7974 78.513L63.4798 78.3151L63.1801 78.1113L62.8685 77.9194L62.2692 77.5356L61.9696 77.3378L61.6879 77.1579L61.4123 76.978L61.1426 76.7981L60.8909 76.6182L60.6512 76.4504L60.4115 76.2885L60.1957 76.1446L59.992 75.9947L59.8122 75.8568L59.6324 75.7368L59.4826 75.6169L59.3507 75.515L59.2429 75.413L59.147 75.3351L59.0871 75.2631L59.0391 75.2032L59.0151 75.1612L59.0211 75.1372L59.0331 75.1013L59.0631 75.0713V75.0473L59.099 75.0113L59.159 74.9693L59.2788 74.8734L59.3148 74.8494L59.3567 74.8194L59.3927 74.7955L59.4346 74.7715L59.4766 74.7415L59.5245 74.7115L59.5725 74.6875L59.6144 74.6576L59.7103 74.5976L59.7702 74.5676L59.8302 74.5436L59.8781 74.5077L60.1178 74.3877L60.1778 74.3518L60.2377 74.3218L60.2976 74.2978L60.4295 74.2378L60.5493 74.1779L62.1194 73.5183L67.5909 76.7262L68.1422 77.038L68.6815 77.3378L69.2089 77.6376L69.7303 77.9194L70.2337 78.1832L70.7311 78.441L71.6899 78.9207L72.1574 79.1426L72.6008 79.3464L73.0443 79.5443L73.4758 79.7242L73.8953 79.8921L74.3028 80.054L74.6983 80.1979L75.0759 80.3298L75.4534 80.4497L75.813 80.5576L76.1606 80.6536L76.4962 80.7375L76.8198 80.8095L77.1314 80.8694L77.4311 80.9174L77.7187 80.9594L77.9944 80.9773H78.2521H78.5098L78.7495 80.9594L78.9772 80.9354L79.1869 80.8994L79.3907 80.8394L79.5825 80.7795L79.7623 80.7015L79.9241 80.6116L80.0739 80.5097L80.2117 80.4017L80.3316 80.2698L80.4394 80.1319L80.5353 79.976L80.6672 79.7122L80.7631 79.4124L80.823 79.0946L80.8589 78.7348L80.8709 78.3571L80.8529 77.9374L80.805 77.5057L80.7331 77.038L80.6252 76.5583L80.5054 76.0426L80.3495 75.503L80.1698 74.9454L79.96 74.3637L79.7323 73.7641L79.4746 73.1406L79.1929 72.499L78.8933 71.8394L78.5637 71.1559L78.2041 70.4544L77.8266 69.7468L77.4311 69.0093L77.0116 68.2658L76.5681 67.5043L76.1066 66.7248L75.1238 65.1359L74.6024 64.3264L74.0631 63.505L73.5058 62.6655L72.9245 61.8261L71.7079 60.1232L71.0787 59.2658L70.4195 58.3904L69.7603 57.521L69.0711 56.6336L68.3759 55.7522L67.6568 54.8647L66.9257 53.9773L66.1885 53.0779L63.6895 50.1399L62.461 54.6609L62.0175 56.2618L61.5621 57.8508L61.0947 59.4217L60.6152 60.9627L60.1358 62.4917L59.6324 63.9907L59.129 65.4657L58.6076 66.9227L58.0803 68.3498L57.5529 69.7588L57.0135 71.1379L56.4742 72.487L55.9229 73.8061L55.3595 75.0893L54.8022 76.3484L54.2329 77.5776L53.6576 78.7648L53.0823 79.922L52.495 81.0493L51.9197 82.1406L51.3324 83.1839L50.7451 84.2032L50.1578 85.1805L49.5705 86.1159L48.9712 87.0153L48.3899 87.8667L47.8026 88.6762L47.2213 89.4437L46.634 90.1632L46.0527 90.8408L45.4774 91.4703L44.9081 92.052L44.3328 92.5796L43.7694 93.0593L43.2121 93.497L42.6608 93.8807L42.1094 94.2105L41.5701 94.4863L41.0427 94.7082L40.5154 94.8761L40.3955 94.906L40.1438 94.954L40.012 94.966L39.7543 94.99H39.3468L39.2089 94.978L39.0651 94.966L38.9273 94.948L38.7894 94.924L38.5078 94.8641L38.3699 94.8281L38.2261 94.7921L38.0883 94.7442L37.9504 94.7022L37.6688 94.5943L37.2493 94.4144L36.9856 94.2825L36.8477 94.2105L36.4582 93.9707L36.3384 93.8867L35.9788 93.6169L35.6372 93.3171L35.5293 93.2152L35.3256 92.9873L35.2177 92.8674L35.0979 92.7175L34.99 92.5616L34.8881 92.3937L34.7682 92.2138L34.6664 92.022L34.5585 91.8241L34.4506 91.6082L34.2469 91.1526L34.0431 90.6609L33.9472 90.4031L33.7555 89.8634L33.5637 89.2998L33.4798 89L33.3899 88.7002L33.2221 88.0886L33.0663 87.453L32.9884 87.1292L32.8505 86.4697L32.7187 85.7981L32.6588 85.4623L32.5509 84.7908L32.503 84.449L32.4191 83.7775L32.3891 83.4417L32.3292 82.7641L32.2812 82.1046L32.2752 81.7808L32.2633 81.541L32.2513 81.2771V78.2911L32.2692 77.5356L32.2752 77.1519L32.2872 76.7681L32.2932 76.3784L32.3292 75.2272L32.3591 74.4777L32.3771 74.1179L32.3891 73.7582L32.4071 73.4104L32.4191 73.0746L32.443 72.7508L32.479 72.1512L32.497 71.8694L32.5149 71.6116L32.5329 71.3717L32.5509 71.1499L32.5749 70.946L32.5929 70.7661L32.6108 70.6103L32.6348 70.4783L32.6528 70.3704L32.6708 70.2925L32.6887 70.2445L32.7067 70.2205L32.7187 70.2265L32.7307 70.2205L32.7487 70.2325H32.7666L32.7846 70.2445L32.8026 70.2505L32.8625 70.2805L32.8805 70.2985L32.9764 70.3584L33.0064 70.3764L33.0783 70.4244L33.1202 70.4484L33.1622 70.4783L33.342 70.5983L33.4019 70.6342L33.4438 70.6642L33.5038 70.7002L33.5637 70.7422L33.6116 70.7721L33.7315 70.8561L33.7914 70.8921L33.9712 71.012L34.151 71.1439L34.2708 71.2278L34.3907 71.3238L35.8889 72.433L35.7451 75.9707L35.7271 76.3544L35.7211 76.7502V77.1399L35.7091 77.9194V78.6989L35.7271 79.8561L35.7511 80.6236L35.769 81.0013L35.781 81.3731L35.805 81.7328L35.829 82.1046L35.9009 83.1839L35.9608 83.8674L35.9968 84.2032L36.0267 84.533L36.1046 85.1685L36.1885 85.7801L36.2365 86.0679L36.2784 86.3497L36.3264 86.6256L36.3743 86.8834L36.4342 87.1472L36.4942 87.3871L36.5421 87.6269L36.602 87.8488L36.662 88.0646L36.7219 88.2685L36.8418 88.6282L36.9616 88.958L37.0935 89.2698L37.2133 89.5696L37.3452 89.8394L37.483 90.0913L37.6268 90.3191L37.7706 90.535L37.9145 90.7268L38.0703 90.9067L38.2261 91.0626L38.3939 91.1945L38.5557 91.3144L38.7235 91.4044L38.9033 91.4823L39.0831 91.5303L39.2629 91.5663L39.4426 91.5783H39.6404L39.8382 91.5483L40.0419 91.5003L40.2577 91.4284L40.4674 91.3444L40.6951 91.2365L40.9229 91.1046L41.1626 90.9607L41.4023 90.7808L41.654 90.5889L41.9057 90.3791L42.1694 90.1392L42.433 89.8874L42.7027 89.6116L42.9844 89.3118L43.272 88.994L43.5717 88.6582L43.8713 88.2985L44.171 87.9207L44.4886 87.519L44.8182 87.0992L45.1478 86.6615L45.4894 86.1998L45.8489 85.6782L46.2265 85.1386L46.598 84.5689L46.9756 83.9873L47.3472 83.3757L47.7247 82.7462L48.1082 82.0866L48.4858 81.4091L48.8693 80.7195L49.2469 80L49.6244 79.2625L50.008 78.507L50.7571 76.948L51.1346 76.1386L51.5122 75.3171L51.8897 74.4777L52.2672 73.6262L52.6388 72.7508L53.0104 71.8694L53.3699 70.97L53.7295 70.0586L54.0891 69.1352L54.4486 68.1999L55.1678 66.2811L55.5273 65.3098L55.8689 64.3264L56.2165 63.3431L56.5581 62.3418L56.8937 61.3404L57.2233 60.3211L57.5469 59.3018L57.8645 58.2825L58.1762 57.2452L58.4878 56.2019L58.7874 55.1586L59.0871 54.1093L59.6624 51.9987L60.9808 47.0999L57.9245 44.012L56.3663 42.453L56.1266 42.2252L56.0187 42.1052L55.8989 41.9973L55.779 41.8774L55.6712 41.7755L55.5633 41.6555L55.3475 41.4457L55.2517 41.3438L54.8561 40.972L54.7722 40.8881L54.6883 40.7981L54.5205 40.6422L54.4486 40.5643L54.3767 40.4923L54.3048 40.4324L54.125 40.2525L54.0651 40.2045L52.7826 39.0353L41.7259 42.2851L40.839 42.5609L39.964 42.8248L39.107 43.1006L38.268 43.3644L37.441 43.6342L36.626 43.8981L35.823 44.1679L35.0319 44.4377L34.2529 44.7075L32.7427 45.2352L32.0056 45.511L31.2864 45.7748L30.5673 46.0446L29.8601 46.3204L29.171 46.5903L28.4878 46.8661L27.8106 47.1479L26.4922 47.6995L25.845 47.9813L25.2097 48.2631L24.5805 48.545L23.346 49.1206L22.1474 49.7202L20.9728 50.3198L19.8222 50.9314L19.2529 51.2432L18.6955 51.543L18.1382 51.8667L16.9576 52.4544L16.4183 52.7841L15.8789 53.1199L15.3635 53.4377L14.8721 53.7555L14.3927 54.0733L13.9372 54.3851L13.5058 54.6849L13.0863 54.9847L12.6788 55.2845L12.3012 55.5843L11.9416 55.8721L11.5941 56.1719L11.2704 56.4597L10.9708 56.7355L10.6831 57.0173L10.4135 57.2871L10.1738 57.557L9.93405 57.8208L9.7243 58.0786L9.53253 58.3364L9.35275 58.5883L9.19693 58.8281L9.06509 59.0679L8.94524 59.3078L8.84935 59.5476L8.77144 59.7755L8.71152 59.9913L8.66957 60.2072L8.6456 60.417V60.6269L8.66357 60.8248L8.70552 61.0226L8.76545 61.2025L8.84336 61.3824L8.94524 61.5623L9.06509 61.7422L9.20293 61.91L9.35874 62.0659L9.53852 62.2158L9.73629 62.3657L9.95203 62.5096L10.1917 62.6416L10.3715 62.7375L10.5633 62.8274L10.773 62.9174L10.9888 63.0073L11.2105 63.0853L11.4502 63.1692L11.7019 63.2472L11.9536 63.3191L12.2233 63.3971L12.505 63.469L12.7926 63.529L13.3919 63.6489L13.7035 63.7088L14.0271 63.7688L14.3627 63.8288L14.7043 63.8767L15.0519 63.9247L15.4115 63.9727L15.771 64.0146L16.5201 64.0926L16.9037 64.1226L17.6947 64.1825L18.0963 64.2065L18.5038 64.2245L18.9233 64.2485L19.3428 64.2605L19.7742 64.2725L20.6372 64.2845H21.9676L22.4171 64.2725L22.8725 64.2665L23.328 64.2545L23.7894 64.2365L24.2569 64.2125L24.3408 64.2065L24.4307 64.2005H24.5146L24.6044 64.1945L24.7722 64.1825L24.94 64.1765H25.0299H25.3655H25.4434L25.5273 64.1705L25.839 64.1645L25.9109 64.1585H26.0667L26.1266 64.1526H26.2704L26.3304 64.1466H26.3903L26.5102 64.1406L26.5701 64.1346L26.63 64.1406H26.678L26.7259 64.1346H27.0255L27.0855 64.1526L27.1454 64.1765L27.2053 64.2125L27.2653 64.2545L27.3372 64.3025L27.4091 64.3624L27.493 64.4224L27.5829 64.4823L27.6668 64.5543L27.7567 64.6382L27.8525 64.7282L28.2301 65.1059L28.326 65.2079L28.6136 65.5316L28.7095 65.6516L28.8893 65.8734L28.9732 65.9813L29.141 66.1912L29.2129 66.2991L29.2848 66.4011L29.4167 66.5929L29.4766 66.6889L29.5365 66.7728L29.6144 66.9287L29.6444 67.0007L29.6684 67.0606L29.6863 67.1206L29.6923 67.1805V67.2225L29.6804 67.2585L29.6624 67.2765L29.5126 67.3184H29.4646L29.3448 67.3304L29.165 67.3664H29.0871L28.9193 67.3844L28.8354 67.3964L28.7395 67.4024L28.6436 67.4144H28.5417L28.332 67.4324L28.1102 67.4564L27.9904 67.4623L27.8705 67.4803L27.499 67.5043L27.3671 67.5163L27.0975 67.5403H26.9596L26.8218 67.5523L26.3903 67.5763H26.2405L26.1026 67.5823L25.9528 67.5943L25.3356 67.6242L24.7363 67.6602L24.137 67.6782L23.5497 67.7022L22.9684 67.7202L21.8298 67.7322H20.7331L20.1937 67.7202H19.6544L19.133 67.6962L18.6116 67.6782L17.6108 67.6182L17.1194 67.5763L16.64 67.5403L16.1606 67.4923L15.2377 67.3844L14.3507 67.2645L13.9313 67.2045L13.0923 67.0486L12.6907 66.9647L12.2952 66.8747L11.9177 66.7848L11.5401 66.6829L10.821 66.479L10.4734 66.3591L10.1438 66.2392L9.82019 66.1192L9.50257 65.9993L9.19094 65.8674L8.8913 65.7295L8.60365 65.5976L8.32798 65.4537L8.0583 65.2978L7.81859 65.1599L7.57888 65.01L7.35115 64.8601L7.1414 64.7102L6.93764 64.5603L6.73988 64.3984L6.38031 64.0866L6.21251 63.9247L6.06269 63.7628L5.91887 63.5949L5.78103 63.427L5.54132 63.0673L5.43345 62.8874L5.33756 62.7075L5.25367 62.5276L5.17576 62.3478L5.11583 62.1679L5.01395 61.7901L4.98399 61.5983L4.95402 61.4004L4.93605 61.1965L4.93005 60.9987L4.93605 60.7888L4.94803 60.5789L4.972 60.3751L5.00197 60.1592L5.04392 59.9434L5.09186 59.7215L5.15179 59.4997L5.2237 59.2778L5.30161 59.05L5.3915 58.8101L5.49338 58.5703L5.60125 58.3304L5.84096 57.8508L5.9728 57.6109L6.41627 56.9094L6.65598 56.5676L6.91967 56.2079L7.20133 55.8601L7.50097 55.5003L7.81859 55.1406L8.50177 54.433L8.87332 54.0733L9.25686 53.7135L9.66437 53.3538L10.0839 52.994L10.5213 52.6342L10.9768 52.2745L11.9356 51.555L12.439 51.1952L12.9784 50.8354L14.0751 50.1159L14.6504 49.7562L15.2497 49.3964L15.8609 49.0366L16.4842 48.6769L17.1314 48.3171L17.7906 47.9574L18.4678 47.5976L19.157 47.2378L19.8761 46.8781L20.6072 46.5183L21.3444 46.1586L22.1054 45.7988L22.8845 45.439L23.6756 45.0793L24.4846 44.7195L25.3116 44.3597L26.1506 44L27.0076 43.6402L27.8825 43.2805L28.272 43.1186L28.6915 42.9507L29.153 42.7708L30.1538 42.3991L30.6931 42.1952L31.8318 41.7755L32.4311 41.5656L33.0483 41.3438L33.6895 41.1219L34.3308 40.8941L34.99 40.6722L35.6492 40.4444L36.3204 40.2165L37.0036 39.9887L37.6808 39.7608L39.0351 39.3111L42.3012 38.2558L42.9245 38.0639L43.5237 37.8841L44.099 37.7042L45.1957 37.3744L45.7051 37.2245L46.1845 37.0866L46.634 36.9667L47.0535 36.8468L47.431 36.7448L47.7786 36.6609L48.0783 36.5829L48.342 36.523L48.5637 36.475L48.7435 36.445L48.8753 36.439L49.8042 36.421L48.8633 35.5096L48.7075 35.3657L48.5277 35.1979L48.336 35.03L48.1202 34.8501L47.8925 34.6462L47.6528 34.4364L47.3831 34.2085L47.1074 33.9687L46.8078 33.7288L46.5082 33.477L46.1845 33.2192L45.8609 32.9494L45.5134 32.6735L44.7942 32.1099L44.4346 31.8221L43.6676 31.2225L43.278 30.9227L42.487 30.3111L41.6839 29.6995L41.2645 29.3997L40.8629 29.0999L40.4554 28.8001L39.6524 28.2005L39.2569 27.9007L38.8613 27.6129L38.4718 27.3311L38.0883 27.0553L37.7107 26.7795L37.3511 26.5216L36.9916 26.2698L36.644 26.018L36.3084 25.7781L35.9728 25.5503L35.6612 25.3344L35.3495 25.1306L34.4267 24.531L33.9592 24.2312L33.5038 23.9434L32.5809 23.3917L32.1194 23.1219L31.664 22.8641L30.7531 22.3604L30.3036 22.1206L29.8601 21.8807L29.4167 21.6529L28.9852 21.437L28.1222 21.0293L27.7027 20.8374L26.8757 20.4777L26.4742 20.3158L26.0787 20.1539L25.6891 20.004L25.3056 19.8661L24.946 19.7342L24.2269 19.4943L23.8793 19.3924L23.5497 19.3025L23.2261 19.2185L22.9085 19.1466L22.6088 19.0866L22.3212 19.0386L22.0335 18.9967L21.7698 18.9667L21.5122 18.9487H21.0447L20.829 18.9667L20.6252 18.9907L20.4454 19.0326L20.2357 19.0926L20.0379 19.1765L19.8581 19.2965L19.6963 19.4284L19.5585 19.5783L19.4386 19.7462L19.3308 19.938L19.2409 20.1479L19.163 20.3757L19.103 20.6276L19.0671 20.8914L19.0431 21.1792L19.0371 21.479L19.0491 21.7968L19.0791 22.1326L19.115 22.4923L19.175 22.8641L19.2469 23.2418L19.3368 23.6436L19.4446 24.0633L19.5645 24.501L19.6963 24.9387L20.0259 25.8801L20.2057 26.3597L20.4035 26.8574L20.6192 27.3731L20.8589 27.9007L21.0987 28.4404L21.3563 28.98L21.638 29.5436L21.9257 30.1072L22.2253 30.6889L22.5429 31.2765L22.8785 31.8761L23.2261 32.4877L23.5857 33.1052L23.9692 33.7288L24.3587 34.3644L24.7603 35.006L26.4382 37.6622L25.6891 39.3771L25.6592 39.449L25.5992 39.5809L25.5693 39.6589L25.5094 39.7968L25.4734 39.8567L25.4434 39.9287L25.4135 39.9887L25.3835 40.0606L25.3595 40.1206L25.2996 40.2405L25.2756 40.3005L25.2157 40.4204L25.1977 40.4803L25.1678 40.5403L25.1078 40.6842L25.0779 40.7322L25.0599 40.7741L24.982 40.93L24.9221 41.026L24.9101 41.05L24.8921 41.0739L24.8621 41.1339L24.8202 41.1759H24.7902L24.6943 41.0799L24.6224 41.002L24.5445 40.8941L24.4486 40.7741L24.3408 40.6302L24.2209 40.4623L24.0891 40.2825L23.9512 40.0846L23.6516 39.6349L23.4898 39.3951L23.322 39.1372L23.1422 38.8674L22.9504 38.5736L22.5729 37.974L22.1774 37.3564L21.5781 36.3971L21.3743 36.0613L21.1766 35.7315L20.9728 35.4077L20.5833 34.7482L20.3855 34.4244L20.2057 34.1066L20.014 33.7888L19.6664 33.1892L19.4986 32.8894L19.3368 32.6076L19.1869 32.3318L19.0371 32.0739L18.9053 31.8341L18.6656 31.3784L18.5098 31.0906L18.3599 30.7908L18.2161 30.491L17.9285 29.8794L17.7966 29.5676L17.5269 28.938L17.1674 27.9787L17.0475 27.6549L16.9396 27.3371L16.8198 27.0193L16.616 26.3837L16.5201 26.0599L16.3404 25.4364L16.1726 24.8188L16.0287 24.2192L15.9688 23.9194L15.849 23.3438L15.801 23.0619L15.7171 22.5223L15.6812 22.2645L15.6572 22.0126L15.6332 21.7728L15.6212 21.533V21.3051L15.6152 21.0893L15.6212 20.8734V20.6755L15.6572 20.3038L15.6871 20.1419L15.7471 19.8421L15.789 19.6982L15.837 19.5543L15.8849 19.4044L15.9329 19.2665L16.0527 18.9787L16.1726 18.7028L16.3164 18.427L16.3883 18.3071L16.5501 18.0433L16.634 17.9234L16.8977 17.5636L16.9936 17.4437L17.1853 17.2218L17.2872 17.1199L17.3891 17.012L17.491 16.916L17.5989 16.8141L17.8206 16.6342L17.9285 16.5503L18.0483 16.4663L18.1562 16.3884L18.3839 16.2445L18.7435 16.0646L18.9832 15.9687L19.2229 15.8907L19.6604 15.8008L20.1218 15.7408L20.6012 15.6989L21.1166 15.6929L21.656 15.7108L22.2193 15.7708L22.7946 15.8488L23.3939 15.9687L24.0171 16.1006L24.6584 16.2625L25.3296 16.4603L26.0128 16.6762L26.7139 16.928L27.433 17.1919L28.1762 17.4917L28.9313 17.8154L29.7103 18.1752L30.4894 18.5529L31.2924 18.9487L32.1134 19.3684L32.9404 19.8121L33.7794 20.2798L34.6364 20.7775L35.5054 21.2931L36.3803 21.8328L37.2672 22.3964L38.1662 22.984L39.0651 23.5836L39.982 24.2132L40.9049 24.8607L41.8338 25.5323L42.7686 26.2218L43.7155 26.9234L44.6624 27.6549L45.6212 28.4044L46.5801 29.1719L47.5389 29.9513L48.4978 30.7548L49.4566 31.5763L50.4155 32.4157L53.6636 35.3058L58.1282 34.3764L58.7994 34.2565L59.4406 34.1366L59.7523 34.0766L60.2017 33.9867L60.3456 33.9687L60.6212 33.9087L60.7531 33.8847L61.0108 33.8428L61.2505 33.8008L61.3703 33.7828L61.4782 33.7648L61.6879 33.7348L61.7838 33.7228L61.8737 33.7048L61.9636 33.6929L62.1254 33.6689L62.1973 33.6629H62.2573H62.5929L62.6408 33.6509L62.7007 33.6269L62.7487 33.6029L62.8086 33.5669L62.9045 33.471L62.9464 33.411L62.9944 33.3511L63.0363 33.2731L63.0783 33.1832L63.1142 33.0873L63.1622 32.9793L63.2041 32.8594L63.2401 32.7275L63.276 32.5896L63.312 32.4397L63.348 32.2778L63.3899 32.1099L63.4199 31.93L63.4558 31.7382L63.4858 31.5343L63.5217 31.3184L63.5517 31.0786L63.5877 30.8388L63.6176 30.5809L63.6476 30.3171L63.6835 30.0353L63.7135 29.7355L63.7375 29.4357L63.7674 29.1179L63.7974 28.7821L63.8274 28.4344L63.8573 28.0746L63.8873 27.6969L63.9113 27.3071L63.9412 26.8994L63.9712 26.4797L64.0012 26.042L64.0251 25.5923L64.0611 24.9327L64.0911 24.2731L64.115 23.6376L64.151 22.3784V20.5796L64.139 19.998L64.127 19.4224L64.0791 18.3131L64.0491 17.7735L64.0072 17.2458L63.9652 16.7302L63.9173 16.2265L63.8573 15.7348L63.7974 15.2551L63.7375 14.7935L63.6776 14.3438L63.5996 13.912L63.5277 13.4923L63.4438 13.0906L63.3539 12.7009L63.264 12.3291L63.1682 11.9693L63.0663 11.6276L62.9644 11.3038L62.8446 10.992L62.7247 10.7042L62.6048 10.4224L62.485 10.1705L62.3531 9.9307L62.2213 9.70884L62.0835 9.50498L61.9456 9.3251L61.8018 9.16321L61.652 9.0193L61.5022 8.89938L61.3404 8.79745L61.1845 8.7195L61.0048 8.65954L60.825 8.59359L60.6452 8.56361L60.4654 8.55162L60.2856 8.55761L60.1058 8.59359L59.9081 8.62357L59.7043 8.68353L59.5006 8.75548L59.2908 8.83942L58.8593 9.07926L58.6376 9.22317L58.4099 9.37906L58.1821 9.55894L57.9424 9.75082L57.7027 9.96068L57.463 10.1885L57.2233 10.4284L56.9836 10.6922L56.7199 10.968L56.4622 11.2558L56.1985 11.5556L55.9289 11.8854L55.6532 12.2212L55.3835 12.5809L55.1018 12.9527L54.8142 13.3364L54.5325 13.7561L54.2329 14.1759L53.9332 14.6076L53.6336 15.0693L53.334 15.537L53.0343 16.0166L52.7347 16.5203L52.4171 17.036L51.7818 18.1152L51.4582 18.6849L48.6296 23.6316L46.7718 23.8714L46.7119 23.8774L46.64 23.8834H46.5801H46.5082H46.4482H46.3883H46.3284H45.8489H45.801H45.7591L45.6991 23.8774H45.6572L45.6152 23.8714L45.4954 23.8474H45.4354L45.3755 23.8234H45.3515L45.2916 23.7875L45.2736 23.7755L45.2676 23.7575L45.2557 23.7455L45.2497 23.7215V23.7035L45.2617 23.6316L45.2796 23.5416L45.3156 23.4217L45.3575 23.2898L45.4175 23.1459L45.4774 22.978L45.5493 22.7981L45.6392 22.6062L45.7231 22.3844L45.825 22.1625L45.9328 21.9227L46.0527 21.6829L46.1726 21.425L46.2924 21.1612L46.4243 20.8914L46.5681 20.6096L46.8497 20.022L47.1494 19.4224L47.3052 19.1226L47.461 18.8108L47.9404 17.8994L48.1082 17.5996L48.27 17.2998L48.4259 17L48.5937 16.7002L48.9053 16.1366L49.0611 15.8667L49.2109 15.6029L49.3607 15.3511L49.5106 15.1112L49.6484 14.8714L49.7802 14.6555L49.9121 14.4517L50.0319 14.2538L50.1518 14.0739L50.4155 13.6842L50.9428 12.9227L51.2005 12.5629L51.7159 11.8554L52.2133 11.1959L52.465 10.8721L53.1961 9.95468L53.4358 9.66687L53.6756 9.39106L53.9153 9.12124L54.155 8.86341L54.6224 8.37174L54.8621 8.1319L55.3176 7.68819L55.5453 7.48433L55.9888 7.08859L56.4323 6.72883L56.654 6.56094L56.8697 6.39905L57.1094 6.19519L57.5289 5.92537L57.7447 5.80545L57.9544 5.68553L58.1642 5.5776L58.3679 5.48166L58.5837 5.39172L58.7814 5.30178L58.9852 5.22983L59.1889 5.16987L59.3867 5.10991L59.6384 5.04995L59.7702 5.02597L59.8901 5.01397L60.0219 5.00198L60.2856 4.98999H60.4235L60.5613 4.99599L60.6931 5.00798L60.7051 5.01397ZM60.9448 37.3744L60.2497 37.5123L59.5006 37.6922L58.7814 37.9021L58.1821 38.1059L57.7267 38.2858L57.457 38.4417L57.4091 38.5616L58.0923 39.3231L59.111 40.3724L60.2017 41.4397L61.0887 42.2611L61.5082 42.5849L61.604 42.429L61.7359 42.0513L61.8917 41.4817L62.0715 40.7621L62.2393 39.9407L62.4071 38.9993L62.497 38.2618V37.7402L62.4191 37.4044L62.2573 37.2605L61.9936 37.2365L61.5441 37.2725L60.9448 37.3624V37.3744ZM31.7599 37.3144L29.159 38.3218L29.938 36.8707C30.9448 34.97 33.4139 32.1759 35.4754 30.6109C35.5833 30.521 36.1226 30.0953 37.1054 29.3218L38.4958 30.3051C39.2569 30.8448 39.9041 31.3664 39.934 31.5043C39.964 31.6122 39.4366 32.1039 38.7714 32.5236C38.0763 32.9793 36.8058 34.0226 35.9368 34.8381C34.8342 35.9174 33.6236 36.6249 31.7599 37.3204V37.3144ZM46.6819 72.475C40.2097 71.6116 34.0012 67.6782 30.2796 62.042C28.7035 59.6316 26.8038 54.2771 26.6839 51.9387C26.612 50.5296 26.7259 50.3797 28.1402 49.7202C28.9792 49.3424 29.7103 49.0606 29.7942 49.0846C29.8541 49.1446 30.0939 50.5116 30.2736 52.1785C30.9328 57.551 34.3008 62.8994 38.9992 65.9394C41.5881 67.6542 45.3515 68.9374 48.0963 69.0933C49.163 69.1532 50.0739 69.3331 50.0919 69.453C50.1338 69.6029 49.8342 70.3764 49.4326 71.2218L48.7255 72.7808L46.67 72.481L46.6819 72.475ZM49.2589 26.4737C48.0903 25.3104 54.8322 26.1739 58.4099 27.6729C60.4594 28.5123 60.6152 28.6322 60.4714 29.5616C60.3635 30.3411 56.8937 30.6829 54.8022 30.1132C53.304 29.7055 50.9488 28.1585 49.2589 26.4797V26.4737ZM64.109 62.7075C65.0499 61.7122 66.0687 60.429 66.3264 59.9494C66.9616 58.6902 67.2253 58.6902 67.9804 59.7335C68.316 60.2611 68.7894 60.8727 69.0231 61.2025C69.3228 61.5863 69.0291 62.2039 68.0463 63.481C65.6672 66.5989 60.2317 70.7841 60.6871 69.1412C61.5142 66.443 62.6048 64.3144 64.115 62.7135L64.109 62.7075ZM71.0008 48.0473C69.8382 46.6083 69.2629 45.481 68.8613 43.958C67.8545 40.1985 69.4007 36.7148 70.803 39.479C71.5941 40.978 72.7686 45.6729 72.9424 47.9154C73.0443 49.0126 72.9904 49.954 72.8825 49.99C72.7387 50.026 71.9237 49.1206 71.0068 48.0473H71.0008Z" fill="url(#paint1_linear_2004_100)"/>
<defs>
<filter id="filter0_f_2004_100" x="-1.06995" y="-1.01001" width="102" height="102" filterUnits="userSpaceOnUse" color-interpolation-filters="sRGB">
<feFlood flood-opacity="0" result="BackgroundImageFix"/>
<feBlend mode="normal" in="SourceGraphic" in2="BackgroundImageFix" result="shape"/>
<feGaussianBlur stdDeviation="3" result="effect1_foregroundBlur_2004_100"/>
</filter>
<linearGradient id="paint0_linear_2004_100" x1="4.93005" y1="4.98999" x2="9004.93" y2="4.98999" gradientUnits="userSpaceOnUse">
<stop stop-color="#2F71C1"/>
<stop offset="1" stop-color="#7561C3"/>
</linearGradient>
<linearGradient id="paint1_linear_2004_100" x1="4.93005" y1="4.98999" x2="9004.93" y2="4.98999" gradientUnits="userSpaceOnUse">
<stop stop-color="#2F71C1"/>
<stop offset="1" stop-color="#7561C3"/>
</linearGradient>
</defs>
</svg>
