<svg width="90" height="90" viewBox="0 0 90 90" fill="none" xmlns="http://www.w3.org/2000/svg">
<g clip-path="url(#clip0_2004_107)">
<path d="M190.161 -47.7421H-100.161V129.045H190.161V-47.7421Z" fill="#1FCE6D"/>
<path d="M16.7589 37.3442H28.3196V39.7539H23.9052V51.5119H21.1718V39.7539H16.7589V37.3442Z" fill="white"/>
<path d="M35.2989 48.3184C35.9337 48.9532 36.7839 49.2706 37.8494 49.2706C38.9148 49.2706 39.7553 48.9532 40.3708 48.3184C40.9843 47.6835 41.2911 46.8063 41.2911 45.6866V37.3442H44.0042V45.6866C44.0042 46.9147 43.7545 47.9845 43.2552 48.8961C42.7697 49.7928 42.0257 50.5227 41.1198 50.9908C40.1947 51.4747 39.1045 51.7166 37.8494 51.7166C36.5942 51.7166 35.491 51.4747 34.5397 50.9908C33.6246 50.5278 32.8723 49.7972 32.3826 48.8961C31.8832 47.9845 31.6335 46.9147 31.6335 45.6866V37.3442H34.3466V45.6866C34.3466 46.8073 34.664 47.6845 35.2989 48.3184Z" fill="white"/>
<path d="M56.8815 51.5177L54.4355 47.3226C54.2671 47.3379 54.098 47.3442 53.9289 47.3414H50.7353V51.5177H48.0135V37.3442H53.926C55.7647 37.3442 57.1819 37.7695 58.1777 38.6202C59.1735 39.4708 59.6729 40.6723 59.6758 42.2245C59.6758 43.3306 59.4339 44.2752 58.95 45.0581C58.4569 45.8538 57.7225 46.4712 56.8539 46.8203L59.9719 51.5177H56.8815ZM50.7266 44.9579H53.9202C54.945 44.9579 55.7279 44.7348 56.2689 44.2887C56.8098 43.8426 57.0798 43.1811 57.0789 42.3044C57.0789 41.4402 56.8089 40.7923 56.2689 40.3606C55.7289 39.929 54.946 39.7132 53.9202 39.7132H50.7266V44.9579Z" fill="white"/>
<path d="M63.4617 37.3442H73.2412L73.2209 39.7132H66.1747V43.5397H72.5938V45.9087H66.1747V51.5177H63.4617V37.3442Z" fill="white"/>
<path d="M13.8063 41.1837L11.8742 39.2516L8.52536 42.599L6.59326 44.5326L8.52536 46.4647L11.8742 49.8136L13.8063 47.88L10.4589 44.5326L13.8063 41.1837Z" fill="white"/>
<path d="M76.1937 41.1837L78.1258 39.2516L81.4747 42.599L83.4068 44.5326L81.4747 46.4647L78.1258 49.8136L76.1937 47.88L79.5411 44.5326L76.1937 41.1837Z" fill="white"/>
</g>
<defs>
<clipPath id="clip0_2004_107">
<rect width="90" height="90" fill="white"/>
</clipPath>
</defs>
</svg>
