<svg width="90" height="90" viewBox="0 0 90 90" fill="none" xmlns="http://www.w3.org/2000/svg">
<path d="M75.596 0H0V75.596C0 79.4129 1.52679 83.0691 4.21874 85.7813C6.91071 88.4933 10.5871 90 14.404 90H75.596C79.4129 90 83.0692 88.4733 85.7813 85.7813C88.4934 83.0893 90 79.4129 90 75.596V14.404C90 10.5871 88.4732 6.93086 85.7813 4.21875C83.0893 1.5067 79.4129 0 75.596 0ZM66.7768 80.2366C65.23 78.529 64.4263 76.0782 64.3661 72.8839H70.654C70.6942 75.7166 71.6786 77.1227 73.6272 77.1227C74.6116 77.1227 75.3147 76.8014 75.7366 76.1786C76.1384 75.5558 76.3393 74.5714 76.3393 73.2054C76.3393 72.1206 76.0781 71.2166 75.5357 70.5134C74.8326 69.6696 73.9085 69.0067 72.8839 68.6049L70.5536 67.5C68.4844 66.5157 66.9777 65.3304 66.0335 63.9642C65.1295 62.5982 64.6874 60.6897 64.6874 58.259C64.6874 55.5267 65.4911 53.3169 67.0581 51.6094C68.6853 49.9018 70.8951 49.0581 73.7277 49.0581C76.4598 49.0581 78.5692 49.9018 80.0558 51.5691C81.5625 53.2567 82.3661 55.6473 82.4263 58.7813H76.3795C76.4197 57.7567 76.1987 56.7321 75.7768 55.808C75.4353 55.125 74.7723 54.7834 73.7679 54.7834C72 54.7834 71.1161 55.8281 71.1161 57.9375C71.1161 59.0023 71.3371 59.8259 71.7589 60.4688C72.3816 61.1719 73.1652 61.7143 74.0492 62.0357L76.279 63.0201C78.5893 64.0848 80.2366 65.3705 81.2611 66.9174C82.2857 68.4643 82.7879 70.5335 82.7879 73.1451C82.7879 76.259 81.9844 78.6496 80.3169 80.3169C78.6697 81.9843 76.3995 82.8281 73.4665 82.8281C70.5335 82.8281 68.3237 81.9843 66.7566 80.2768L66.7768 80.2366ZM46.4866 80.2366C44.9397 78.529 44.1361 76.0782 44.0759 72.8839H50.3639C50.404 75.7166 51.3884 77.1227 53.3371 77.1227C54.3214 77.1227 55.0245 76.8014 55.4263 76.1786C55.8281 75.5558 56.029 74.5714 56.029 73.2054C56.029 72.1206 55.7679 71.2166 55.2455 70.5134C54.5424 69.6696 53.6184 69.0067 52.5937 68.6049L50.2634 67.5C48.1942 66.5157 46.6874 65.3304 45.7434 63.9642C44.8393 62.5982 44.3973 60.6897 44.3973 58.259C44.3973 55.5267 45.2008 53.3169 46.7679 51.6094C48.3951 49.9018 50.605 49.0581 53.4374 49.0581C56.1697 49.0581 58.279 49.9018 59.7455 51.5691C61.2723 53.2567 62.0558 55.6473 62.1361 58.7813H56.0893C56.1295 57.7567 55.9085 56.7321 55.4866 55.808C55.1451 55.125 54.4821 54.7834 53.4777 54.7834C51.7098 54.7834 50.8259 55.8281 50.8259 57.9375C50.8259 59.0023 51.0469 59.8259 51.4687 60.4688C52.0915 61.1719 52.875 61.7143 53.7589 62.0357L55.9889 63.0201C58.2992 64.0848 59.9464 65.3705 60.971 66.9174C61.9955 68.4643 62.4978 70.5335 62.4978 73.1451C62.4978 76.259 61.6742 78.6496 60.0268 80.3169C58.3795 81.9843 56.1094 82.8281 53.1763 82.8281C50.2434 82.8281 48.0335 81.9843 46.4665 80.2768L46.4866 80.2366ZM25.2723 80.4576C23.5848 78.9107 22.7611 76.6005 22.7611 73.5267V58.3794C22.7611 55.3259 23.6451 53.0157 25.4129 51.4286C27.2008 49.8616 29.5714 49.0581 32.4844 49.0581C35.3169 49.0581 37.5469 49.8616 39.1942 51.4688C40.8616 53.0759 41.7053 55.4866 41.7053 58.6808V59.8862H35.0558V58.721C35.0558 57.4955 34.7947 56.5714 34.2522 55.9888C34.0313 55.6875 33.73 55.4464 33.3884 55.2857C33.0469 55.125 32.6853 55.0447 32.3036 55.0647C31.2187 55.0647 30.4553 55.4263 30.0134 56.1897C29.5513 57.2344 29.3505 58.3594 29.4107 59.4843V72.6429C29.4107 75.3951 30.375 76.7813 32.3036 76.8214C33.2076 76.8214 33.8906 76.5 34.3527 75.8571C34.855 75.0335 35.096 74.0893 35.0558 73.125V72.1406H41.7053V73.1651C41.7053 75.2946 41.2835 77.0826 40.4598 78.5089C39.6563 79.8951 38.471 81.0201 37.0245 81.7232C35.4777 82.4665 33.7902 82.8281 32.0826 82.788C29.23 82.788 26.9598 82.0045 25.2924 80.4576H25.2723Z" fill="#633194"/>
</svg>
