<svg width="104" height="90" viewBox="0 0 104 90" fill="none" xmlns="http://www.w3.org/2000/svg">
<rect width="103.342" height="90" fill="white"/>
<path d="M57.1759 8.7739C56.1618 9.18504 54.9284 9.84286 54.435 10.2266C53.695 10.8296 53.5853 11.1037 53.4483 12.666L53.3112 14.4202L52.1326 14.338C50.1044 14.2283 49.2547 14.8313 48.1309 17.2982C46.7604 20.3132 46.7878 21.437 48.2405 22.8074C48.8435 23.383 49.3369 23.9312 49.3369 24.0409C49.3369 24.1505 48.8161 24.6987 48.2131 25.2743C47.1167 26.2884 47.0893 26.3706 47.199 27.7685C47.2812 28.6182 47.7198 30.0161 48.2131 31.085C49.2547 33.2504 50.1044 33.826 52.0504 33.6889L53.3112 33.6067L53.3935 35.3061C53.5031 37.4166 54.0787 38.1018 56.8196 39.253C59.5331 40.3768 60.5747 40.322 61.8629 38.9515C62.4385 38.3485 63.0141 37.8551 63.1238 37.8551C63.2334 37.8551 63.809 38.3485 64.3846 38.9515C65.7002 40.322 66.6595 40.3768 69.4553 39.2256C72.1962 38.0744 72.7718 37.4166 72.7718 35.4431V33.8808L74.4438 33.7437C76.4721 33.5793 77.1025 33.1133 78.0344 31.0028C79.1582 28.4812 79.3226 27.3574 78.8018 26.261C78.5552 25.7402 78.0618 25.1646 77.7055 24.9728C76.801 24.4794 76.8558 23.849 77.8425 22.9445C79.4323 21.5466 79.4597 20.8066 78.0618 17.3804C77.0751 14.941 76.1431 14.2557 74.1149 14.338L72.7718 14.4202V12.9127C72.7444 12.0904 72.6074 11.1311 72.4155 10.8022C72.0592 10.1718 68.5508 8.36276 67.1803 8.08867C66.1936 7.86939 64.6039 8.60944 64.1379 9.48654C63.5897 10.5281 63.0963 10.5281 62.137 9.51395C61.1503 8.4724 60.3006 7.97903 59.5605 8.00644C59.2865 8.00644 58.2175 8.36276 57.1759 8.7739ZM60.8214 10.9666C61.8081 12.2001 62.9319 12.529 64.2201 11.9808C64.7135 11.7889 65.2617 11.2955 65.4809 10.9118C65.7002 10.5007 66.084 10.117 66.3306 10.0347C66.7966 9.89768 70.442 11.4052 70.7435 11.8711C70.8258 12.0082 70.8532 12.7208 70.7709 13.4609C70.6613 14.6943 70.7161 14.8862 71.511 15.681C72.3059 16.4759 72.4977 16.5307 73.7037 16.3937C74.4164 16.3114 75.129 16.3389 75.3209 16.4211C75.7868 16.7226 77.3217 20.5051 77.1299 20.9436C77.0477 21.1629 76.6913 21.4918 76.3076 21.7111C74.5534 22.643 74.4438 24.9728 76.0609 26.2336C77.2395 27.1381 77.2669 27.7137 76.198 30.0709L75.4031 31.8525L74.1971 31.688C72.8266 31.4688 71.4836 31.9895 70.9902 32.894C70.8532 33.1955 70.7161 34.1275 70.7161 34.9497V36.4847L69.1538 37.1699C66.5499 38.3485 66.4403 38.3485 65.2617 37.0602C64.3846 36.1009 64.0557 35.9365 63.1238 35.9365C62.0548 35.9365 61.4792 36.2928 60.3554 37.6907C59.8621 38.2937 59.3139 38.2114 57.2856 37.2247L55.504 36.3476V34.7579C55.504 33.2778 55.4218 33.0859 54.5721 32.3184C53.7224 31.5784 53.5305 31.4962 52.3519 31.6606C50.8444 31.8525 50.5703 31.6332 49.6658 29.3857C48.8709 27.4396 48.8984 27.0285 49.8577 26.4529C50.7896 25.9047 51.2555 25.0276 51.2555 23.8216C51.2555 23.1638 50.9815 22.7252 50.1044 21.9029L48.9532 20.8614L49.4191 19.4087C49.6658 18.6412 50.1318 17.5723 50.4333 17.0789C50.954 16.2292 51.0637 16.1744 52.1601 16.3389C54.4624 16.6952 55.8329 15.3521 55.504 13.0772C55.3669 12.2823 55.4218 11.8437 55.6958 11.6245C56.107 11.2681 59.1768 9.9525 59.6702 9.92509C59.8346 9.89768 60.3554 10.3636 60.8214 10.9666Z" fill="black"/>
<path d="M62.0274 17.5997C57.5049 18.422 55.1202 23.4104 57.4226 27.33C58.3545 28.9197 59.5057 29.8242 61.2873 30.345C64.0008 31.1124 67.0159 30.0435 68.5234 27.7685C69.4827 26.3158 69.7294 25.2195 69.5649 23.1638C69.2634 19.6554 65.6454 16.9693 62.0274 17.5997ZM65.7276 20.231C67.0433 21.1903 67.7285 22.7252 67.6189 24.3698C67.3722 27.8507 63.7816 29.6598 60.7117 27.8507C59.5331 27.1655 58.8753 26.1514 58.519 24.4794C58.2449 23.1638 59.3961 20.8888 60.7666 20.0939C62.1096 19.2991 64.5764 19.3539 65.7276 20.231Z" fill="black"/>
<path d="M41.7445 17.1611C36.8382 20.4776 32.535 26.398 30.8904 32.1266L30.2052 34.4289L27.108 34.5934C21.1053 34.9497 16.3361 37.2795 12.6633 41.6924C7.34589 48.1336 6.49621 57.0142 10.5528 64.3599C11.9781 66.9363 15.9524 70.8284 18.5015 72.1715C20.8312 73.3775 23.8463 74.2546 26.4501 74.4739C28.0673 74.6383 28.451 74.5835 28.7799 74.1724C29.52 73.2953 28.8073 72.8293 26.0664 72.473C19.9541 71.6507 14.5819 67.9505 11.9506 62.7427C10.4705 59.7825 10.0594 57.9461 10.0594 54.3007C10.0594 51.4775 10.1416 50.9019 10.8817 48.901C11.9781 45.8586 13.2663 43.8029 15.2672 41.802C18.7481 38.3211 22.5306 36.7587 27.8206 36.5395C29.6296 36.4846 31.329 36.3202 31.5757 36.1831C31.8224 36.0461 32.1239 35.4705 32.2061 34.8949C33.1654 29.1938 36.9753 23.1912 42.1008 19.3539C44.1017 17.8463 44.4854 17.2159 43.8002 16.5307C43.3616 16.0922 43.3342 16.0922 41.7445 17.1611Z" fill="black"/>
<path d="M81.2139 29.2486C81.1316 29.4953 81.3783 30.7013 81.762 31.9347C82.1458 33.1681 82.5569 34.6482 82.6391 35.2512C83.0503 37.8825 83.0229 37.8277 85.0512 39.1707C89.1077 41.8294 91.8487 45.5571 93.0547 50.0796C93.6303 52.1901 93.6303 56.9045 93.0547 59.0973C92.2872 62.0849 90.7797 64.6614 88.3951 67.0734C85.1334 70.3625 82.091 71.8426 77.3218 72.5004C74.8001 72.8293 74.1149 73.2953 74.8275 74.1724C75.6772 75.1865 81.2961 74.1175 84.9415 72.2537C88.2855 70.5817 91.8761 66.8267 93.5754 63.2635C95.0829 60.1114 95.4941 58.1654 95.4667 54.5747C95.4119 47.092 92.5613 41.9665 85.9008 37.3069C84.8593 36.5943 84.7222 36.375 84.5578 35.0594C84.3111 33.2778 83.4066 30.2627 82.8858 29.4131C82.4199 28.7004 81.4605 28.6182 81.2139 29.2486Z" fill="black"/>
<path d="M27.7384 46.4342C27.4917 46.7357 27.4095 48.7092 27.4643 53.9169L27.5465 61.0159H28.3688H29.1911L29.2733 57.9187L29.3555 54.8488H31.4935C34.344 54.8488 34.4811 55.0133 34.5907 58.4121L34.6729 61.0159H35.4952H36.3175L36.3997 58.275C36.4545 56.1919 36.3723 55.2874 36.016 54.5473C35.6048 53.6154 35.6048 53.5058 36.0434 52.8206C36.3997 52.2724 36.4819 51.6694 36.3997 50.0522C36.3175 48.161 36.2353 47.9143 35.413 47.092L34.5359 46.2149L31.3016 46.1327C28.7251 46.0505 27.9851 46.1053 27.7384 46.4342ZM34.1521 48.6818C34.7277 49.4766 34.6455 51.4501 33.9877 52.1079C33.5491 52.5465 33.0832 52.6561 31.3838 52.6561H29.3281V50.5182C29.3281 49.3396 29.4103 48.2706 29.5474 48.161C29.657 48.0514 30.6438 47.9965 31.7401 48.0514C33.3573 48.1336 33.8506 48.2432 34.1521 48.6818Z" fill="black"/>
<path d="M41.443 46.4068C41.1963 46.6535 41.1141 48.6269 41.1141 53.6428C41.1141 59.5632 41.1689 60.6322 41.5526 60.9885C41.8815 61.3448 42.649 61.4271 45.2255 61.4271C48.7613 61.4271 49.885 61.1804 49.885 60.3855C49.885 59.4262 49.3368 59.2343 46.267 59.2343H43.3068V56.9045V54.5747H45.3625C47.0345 54.5747 47.4456 54.4925 47.6649 54.0814C47.8293 53.7799 47.8293 53.4236 47.6649 53.1221C47.4456 52.7383 47.0071 52.6561 45.3625 52.6561H43.3068V50.3263V48.0239L46.3492 47.9417C48.8709 47.8869 49.4739 47.7773 49.6932 47.3935C49.9124 47.0646 49.885 46.8179 49.6384 46.5164C49.3368 46.1601 48.5968 46.0779 45.527 46.0779C42.9779 46.0779 41.6623 46.1875 41.443 46.4068Z" fill="black"/>
<path d="M55.4492 46.5164C54.1061 47.1743 53.4483 48.4351 53.4483 50.3537C53.4483 52.985 54.8462 54.5748 57.1211 54.5748C58.2175 54.5748 59.5057 55.0133 59.8072 55.4793C59.9169 55.6711 60.0265 56.3838 60.0265 57.069C60.0265 58.6587 59.4509 59.2343 57.8612 59.2343C56.3537 59.2343 55.7233 58.878 55.504 57.8639C55.2847 56.8771 54.9832 56.6579 54.1061 56.8771C53.6128 57.0142 53.4483 57.2335 53.4483 57.809C53.4483 58.741 54.298 60.1662 55.2573 60.7692C56.3263 61.4819 59.0946 61.4271 60.328 60.6596C61.6163 59.8647 62 59.1247 62.137 57.206C62.2193 55.863 62.137 55.3696 61.6985 54.6296C60.9036 53.3688 59.588 52.6561 58.0805 52.6561C56.4359 52.6561 55.641 52.0531 55.4492 50.6004C55.2573 49.1203 55.9151 48.298 57.4775 48.0788C58.8205 47.9143 60.0265 48.4899 60.0265 49.3396C60.0265 49.9974 60.931 50.7923 61.4792 50.573C62.74 50.107 61.8629 47.3113 60.2184 46.5438C59.0124 45.9683 56.6004 45.9408 55.4492 46.5164Z" fill="black"/>
<path d="M66.0565 46.489C65.8921 46.7083 65.8099 47.1194 65.9195 47.4483C66.0839 47.9417 66.3306 47.9965 68.0026 47.9965H69.8938V54.1362C69.8938 57.5075 69.9761 60.4677 70.0583 60.7144C70.2776 61.29 71.7028 61.29 71.9221 60.7144C72.0043 60.4677 72.0866 57.5349 72.0866 54.1636V48.0239L73.8956 47.9417C75.9239 47.8595 76.6365 47.3387 75.9513 46.5164C75.4305 45.886 66.5773 45.8586 66.0565 46.489Z" fill="black"/>
<path d="M37.688 67.1556C35.6049 68.2246 35.4952 68.6906 35.5775 75.4058C35.6871 81.9018 35.9064 82.7789 37.1124 81.5455C37.4687 81.2166 37.5509 80.5039 37.5509 78.2564V75.3784L40.6482 75.4606L43.718 75.5429L43.8002 78.3934C43.8825 81.7922 44.2936 82.6145 45.3351 81.5455C45.7189 81.1892 45.7737 80.2573 45.7737 75.5155C45.7737 70.4996 45.7189 69.7869 45.2529 68.855C44.4306 67.2927 43.5261 66.8267 40.9771 66.6897C39.1681 66.6075 38.5925 66.6897 37.688 67.1556ZM43.0876 69.2936C43.4713 69.6225 43.581 70.1432 43.581 71.4863V73.2131H40.5659H37.5509V71.5685C37.5509 69.2387 38.0169 68.8276 40.6208 68.8276C42.046 68.8276 42.7039 68.9372 43.0876 69.2936Z" fill="black"/>
<path d="M51.0362 66.9638C50.7896 67.2104 50.7073 69.2113 50.7073 74.3369C50.7073 80.4217 50.7622 81.4084 51.1459 81.7374C51.4474 81.984 51.6941 82.0114 52.023 81.7922C52.4067 81.5729 52.5163 80.9699 52.5712 78.8594L52.6534 76.2281L54.7639 76.2007C58.8753 76.1733 60.0265 75.1317 60.0265 71.4589C60.0265 68.855 59.4783 67.649 57.9708 67.0186C56.7648 66.5252 51.5296 66.4704 51.0362 66.9638ZM57.6693 69.4306C58.2175 70.2255 58.2449 72.9116 57.7241 73.6516C57.3952 74.0902 56.9841 74.1724 55.038 74.1724H52.763L52.6808 71.87C52.626 70.6092 52.6534 69.4032 52.7356 69.1839C52.8453 68.9372 53.5031 68.8276 55.0654 68.8276C57.0115 68.8276 57.313 68.8824 57.6693 69.4306Z" fill="black"/>
<path d="M64.9054 66.9364C64.4668 67.1831 64.412 67.8409 64.412 74.3095C64.412 81.2166 64.4394 81.4359 64.9876 81.71C65.3987 81.9566 65.6454 81.9292 65.9469 81.6825C66.2484 81.4359 66.3306 80.1202 66.3306 74.3369C66.3306 66.6075 66.2484 66.1415 64.9054 66.9364Z" fill="black"/>
</svg>
