<svg width="120" height="90" viewBox="0 0 120 90" fill="none" xmlns="http://www.w3.org/2000/svg">
<g clip-path="url(#clip0_2001_38)">
<path d="M103.266 51.7031C99.0703 51.7266 95.4375 52.7344 92.3906 54.2344C91.2656 52.0078 90.1406 50.0625 89.9531 48.6094C89.7422 46.9219 89.4844 45.8906 89.7422 43.875C90 41.8594 91.1719 39 91.1719 38.7656C91.1484 38.5547 90.9141 37.5234 88.5 37.5C86.0859 37.4766 84 37.9688 83.7656 38.6016C83.5313 39.2344 83.0625 40.6875 82.7578 42.1875C82.3359 44.3906 77.9297 52.1953 75.4219 56.2969C74.6016 54.7031 73.8984 53.2969 73.7578 52.1719C73.5469 50.4844 73.2891 49.4531 73.5469 47.4375C73.8047 45.4219 74.9766 42.5625 74.9766 42.3281C74.9531 42.1172 74.7188 41.0859 72.3047 41.0625C69.8906 41.0391 67.8047 41.5313 67.5703 42.1641C67.3359 42.7969 67.0781 44.2969 66.5625 45.75C66.0703 47.2031 60.2109 60.2344 58.6875 63.6328C57.9141 65.3672 57.2344 66.75 56.7422 67.6875C56.25 68.625 56.7188 67.7578 56.6719 67.8516C56.25 68.6484 56.0156 69.0938 56.0156 69.0938V69.1172C55.6875 69.7031 55.3359 70.2656 55.1719 70.2656C55.0547 70.2656 54.8203 68.6953 55.2188 66.5391C56.0859 62.0156 58.1953 54.9609 58.1719 54.7031C58.1719 54.5859 58.5703 53.3438 56.8125 52.7109C55.1016 52.0781 54.4922 53.1328 54.3516 53.1328C54.2109 53.1328 54.0938 53.5078 54.0938 53.5078C54.0938 53.5078 55.9922 45.5625 50.4609 45.5625C46.9922 45.5625 42.2109 49.3359 39.8438 52.7813C38.3438 53.6016 35.1563 55.3359 31.7813 57.1875C30.4922 57.8906 29.1563 58.6406 27.8906 59.3203L27.6328 59.0391C20.9297 51.8906 8.53126 46.8281 9.04688 37.2188C9.23438 33.7266 10.4531 24.5156 32.8594 13.3594C51.2109 4.21875 65.9063 6.72657 68.4609 12.3047C72.0938 20.2734 60.6094 35.0859 41.5313 37.2188C34.2656 38.0391 30.4453 35.2266 29.4844 34.1719C28.4766 33.0703 28.3359 33.0234 27.9609 33.2344C27.3516 33.5625 27.7266 34.5469 27.9609 35.1328C28.5234 36.6094 30.8672 39.2344 34.8516 40.5469C38.3438 41.6953 46.875 42.3281 57.1875 38.3438C68.7422 33.8672 77.7656 21.4453 75.1172 11.0625C72.4219 0.492192 54.8906 -2.97656 38.3203 2.90625C28.4531 6.42188 17.7656 11.9063 10.0781 19.1016C0.937509 27.6328 -0.515616 35.0859 0.0937593 38.1797C2.22657 49.2188 17.4375 56.4141 23.5313 61.7344C23.2266 61.8984 22.9453 62.0625 22.6875 62.2031C19.6406 63.7031 8.03907 69.7734 5.13282 76.1953C1.85157 83.4609 5.64845 88.6875 8.1797 89.3906C16.0078 91.5703 24.0234 87.6563 28.3594 81.2109C32.6719 74.7656 32.1563 66.3984 30.1641 62.5781L30.0938 62.4375L32.4844 61.0313C34.0313 60.1172 35.5547 59.2734 36.8906 58.5469C36.1406 60.5859 35.6016 63 35.3203 66.5156C34.9922 70.6406 36.6797 75.9844 38.9063 78.0938C39.8906 79.0078 41.0625 79.0313 41.7891 79.0313C44.3672 79.0313 45.5391 76.8984 46.8281 74.3438C48.4219 71.2266 49.8281 67.6172 49.8281 67.6172C49.8281 67.6172 48.0703 77.3906 52.875 77.3906C54.6328 77.3906 56.3906 75.1172 57.1875 73.9453V73.9688C57.1875 73.9688 57.2344 73.8984 57.3281 73.7344C57.5156 73.4531 57.6094 73.2891 57.6094 73.2891V73.2422C58.3125 72.0234 59.8828 69.2344 62.2266 64.6172C65.25 58.6641 68.1563 51.2109 68.1563 51.2109C68.1563 51.2109 68.4375 53.0391 69.3047 56.0391C69.8203 57.8203 70.9453 59.7656 71.8125 61.6641C71.1094 62.6484 70.6875 63.2109 70.6875 63.2109L70.7109 63.2344C70.1484 63.9844 69.5156 64.7813 68.8594 65.5781C66.4688 68.4375 63.6094 71.6953 63.2344 72.6328C62.7891 73.7344 62.8828 74.5547 63.75 75.2109C64.3828 75.6797 65.5078 75.7734 66.7031 75.6797C68.8594 75.5391 70.3594 75 71.1094 74.6719C72.2813 74.25 73.6172 73.6172 74.9063 72.6797C77.25 70.9453 78.6797 68.4844 78.5391 65.2031C78.4688 63.3984 77.8828 61.6172 77.1563 59.9297C77.3672 59.625 77.5781 59.3203 77.7891 58.9922C81.4922 53.5781 84.3516 47.625 84.3516 47.625C84.3516 47.625 84.6328 49.4531 85.5 52.4531C85.9453 53.9766 86.8359 55.6406 87.6328 57.2813C84.1641 60.1172 81.9844 63.3984 81.2344 65.5547C79.8516 69.5391 80.9297 71.3438 82.9688 71.7656C83.8828 71.9531 85.1953 71.5313 86.1797 71.1094C87.3984 70.7109 88.875 70.0313 90.2344 69.0234C92.5781 67.2891 94.8281 64.875 94.7109 61.6172C94.6406 60.1172 94.2422 58.6406 93.7031 57.2344C96.6563 56.0156 100.477 55.3125 105.328 55.8984C115.758 57.1172 117.82 63.6328 117.422 66.3516C117.023 69.0703 114.844 70.5703 114.117 71.0391C113.391 71.4844 113.156 71.6484 113.227 71.9766C113.32 72.4688 113.648 72.4453 114.281 72.3516C115.148 72.2109 119.766 70.125 119.953 65.1094C120.234 58.6641 114.117 51.6328 103.266 51.7031ZM22.8281 78.8203C19.3828 82.5938 14.5313 84.0234 12.4688 82.8047C10.2422 81.5156 11.1094 75.9609 15.3516 71.9531C17.9297 69.5156 21.2813 67.2656 23.4844 65.8828C23.9766 65.5781 24.7266 65.1328 25.6172 64.5938C25.7578 64.5 25.8516 64.4531 25.8516 64.4531C26.0156 64.3594 26.2031 64.2422 26.3906 64.125C27.9609 69.8438 26.4609 74.8594 22.8281 78.8203ZM48.0234 61.6875C46.8281 64.6172 44.2969 72.1406 42.7734 71.7188C41.4609 71.3672 40.6641 65.6719 42.5156 60.0469C43.4531 57.2109 45.4453 53.8359 46.6172 52.5234C48.5156 50.4141 50.5781 49.7109 51.0938 50.5781C51.7031 51.7031 48.7734 59.8594 48.0234 61.6875ZM68.8125 71.625C68.2969 71.8828 67.8281 72.0703 67.6172 71.9297C67.4531 71.8359 67.8281 71.4844 67.8281 71.4844C67.8281 71.4844 70.4297 68.6953 71.4609 67.4063C72.0469 66.6563 72.75 65.7891 73.5 64.8047V65.0859C73.5 68.4609 70.2656 70.7109 68.8125 71.625ZM84.8438 67.9688C84.4688 67.6875 84.5156 66.8203 85.7813 64.1016C86.2734 63.0234 87.3984 61.2188 89.3438 59.5078C89.5781 60.2109 89.7188 60.8906 89.6953 61.5234C89.6719 65.7422 86.6719 67.3125 84.8438 67.9688Z" fill="#CF649A"/>
</g>
<defs>
<clipPath id="clip0_2001_38">
<rect width="120" height="90" fill="white"/>
</clipPath>
</defs>
</svg>
