<svg width="30" height="30" viewBox="0 0 30 30" fill="none" xmlns="http://www.w3.org/2000/svg">
<path d="M26.1975 19.1563C26.4525 18.5488 25.7238 18.0313 25.1125 18.3013C23.8907 18.8376 22.5706 19.1134 21.2362 19.1113C16.005 19.1113 11.765 14.9563 11.765 9.83C11.7631 8.09918 12.2548 6.40371 13.1825 4.9425C13.5375 4.3825 13.1112 3.6075 12.4613 3.7725C7.45 5.05125 3.75 9.51625 3.75 14.8275C3.75 21.1363 8.96875 26.25 15.4075 26.25C20.2825 26.25 24.4575 23.3188 26.1975 19.1563Z" fill="#484E53"/>
<path d="M19.5136 3.87875C18.8511 3.43625 18.0611 4.22625 18.5024 4.88875L19.2899 6.07C19.6093 6.54896 19.7798 7.11178 19.7798 7.6875C19.7798 8.26322 19.6093 8.82605 19.2899 9.305L18.5024 10.4863C18.0611 11.1488 18.8524 11.9388 19.5149 11.4963L20.6949 10.7088C21.1738 10.3893 21.7367 10.2188 22.3124 10.2188C22.8881 10.2188 23.4509 10.3893 23.9299 10.7088L25.1111 11.4963C25.7736 11.9388 26.5636 11.1488 26.1211 10.4863L25.3336 9.305C25.0142 8.82605 24.8437 8.26322 24.8437 7.6875C24.8437 7.11178 25.0142 6.54896 25.3336 6.07L26.1211 4.88875C26.5636 4.22625 25.7736 3.43625 25.1099 3.87875L23.9299 4.66625C23.4509 4.98571 22.8881 5.15619 22.3124 5.15619C21.7367 5.15619 21.1738 4.98571 20.6949 4.66625L19.5136 3.87875Z" fill="#484E53"/>
</svg>
