<svg width="143" height="90" viewBox="0 0 143 90" fill="none" xmlns="http://www.w3.org/2000/svg">
<g clip-path="url(#clip0_2002_68)">
<path d="M142.258 0H0V90H142.258V0Z" fill="white"/>
<path d="M18.2903 5.80641C5.51613 13.3548 0 25.5483 0 45.5806C0 72 14.8065 90 36.871 90C46.7419 90 62.4194 81 66.7742 72.8709C71.129 64.4516 67.6452 65.3225 56.0323 75.4838C42.9677 87.0967 29.6129 87.0967 17.4194 76.0645C12.7742 71.7096 7.83871 63.8709 6.96774 58.6451L4.93548 49.3548H38.9032H72.5806V38.3225C72.5806 9.29028 42.3871 -9.00004 18.2903 5.80641ZM56.9032 15.6774C63.871 22.6451 66.7742 28.1612 66.7742 34.5483V43.5484H36.2903H5.80645V34.5483C5.80645 21.1935 22.0645 5.80641 36.2903 5.80641C44.7097 5.80641 49.3548 8.12899 56.9032 15.6774Z" fill="black"/>
<path d="M75.484 4.64513C75.484 5.5161 82.1614 14.8064 90.2905 24.9677C99.2905 36.2903 104.226 44.7097 102.774 47.0322C101.613 49.0645 94.355 58.9355 86.226 68.8064C77.8066 79.5484 73.7421 87.0967 76.0647 87.0967C78.3872 87.0967 86.5163 78.6774 94.355 68.2258C102.194 57.7742 108.871 49.3548 108.871 49.3548C108.871 49.3548 115.549 57.7742 123.387 68.2258C131.226 78.6774 139.355 87.0967 141.678 87.0967C144 87.0967 139.936 79.5484 131.516 68.8064C123.387 58.9355 116.129 49.0645 114.968 47.0322C113.516 44.7097 118.452 36.2903 128.032 24.3871C136.161 13.9355 141.968 4.64513 140.807 3.48384C139.645 2.32255 134.71 6.67739 129.774 13.0645C124.549 19.1613 117.871 27.5806 114.387 31.6451L108.581 38.6129L94.355 20.6129C81.8711 4.93546 75.484 -0.580672 75.484 4.64513Z" fill="black"/>
</g>
<defs>
<clipPath id="clip0_2002_68">
<rect width="143" height="90" fill="white"/>
</clipPath>
</defs>
</svg>
