<svg width="90" height="90" viewBox="0 0 90 90" fill="none" xmlns="http://www.w3.org/2000/svg">
<g clip-path="url(#clip0_2001_6)">
<path d="M71.5068 1.23291H18.4931C8.96054 1.23291 1.23285 8.9606 1.23285 18.4932V71.5069C1.23285 81.0395 8.96054 88.7672 18.4931 88.7672H71.5068C81.0394 88.7672 88.7671 81.0395 88.7671 71.5069V18.4932C88.7671 8.9606 81.0394 1.23291 71.5068 1.23291Z" fill="white" stroke="#134514" stroke-width="2"/>
<path d="M46.2261 76.1033L44.5636 75.5351C44.5636 75.5351 44.7667 67.0598 41.7248 66.4516C39.6976 64.0992 42.05 -33.3099 49.3493 66.1269C49.3493 66.1269 46.8347 67.3837 46.3887 69.5335C45.9018 71.6424 46.2261 76.1033 46.2261 76.1033Z" fill="#A6A385"/>
<path d="M47.1186 67.9115C47.1186 67.9115 61.6777 58.3406 58.2706 38.4286C54.9861 23.9517 47.2403 19.2069 46.3886 17.3818C45.4561 16.0841 44.5636 13.8135 44.5636 13.8135L45.1722 54.0823C45.1722 54.1232 43.9145 66.4103 47.1186 67.9115Z" fill="#499D4A"/>
<path d="M43.7124 68.4384C43.7124 68.4384 30.0454 59.111 30.8566 42.6873C31.627 26.2632 41.2787 18.1931 43.1442 16.7332C44.361 15.4355 44.4015 14.9486 44.4828 13.6509C45.3344 15.4759 45.1723 40.9436 45.2936 43.9441C45.6583 55.5018 44.6449 66.249 43.7124 68.4384Z" fill="#58AA50"/>
</g>
<defs>
<clipPath id="clip0_2001_6">
<rect width="90" height="90" fill="white"/>
</clipPath>
</defs>
</svg>
