<svg width="79" height="90" viewBox="0 0 79 90" fill="none" xmlns="http://www.w3.org/2000/svg">
<g clip-path="url(#clip0_2001_13)">
<path d="M39.5 89.2969C38.3185 89.2969 37.1194 88.9805 36.079 88.3828L25.1989 81.9668C23.5765 81.0527 24.3701 80.7363 24.8991 80.5605C27.0681 79.8047 27.5089 79.6465 29.819 78.3281C30.0658 78.1875 30.3832 78.2402 30.6301 78.3984L38.9886 83.3379C39.2884 83.5137 39.7116 83.5137 39.9937 83.3379L72.5636 64.5996C72.8634 64.4238 73.0573 64.0723 73.0573 63.7207V26.2441C73.0573 25.875 72.8634 25.541 72.546 25.3477L39.9937 6.62695C39.6939 6.45117 39.2884 6.45117 38.9886 6.62695L6.45399 25.3652C6.13658 25.541 5.94261 25.8926 5.94261 26.2617V63.7207C5.94261 64.0723 6.13658 64.4238 6.45399 64.582L15.3768 69.7148C20.2261 72.1231 23.1886 69.293 23.1886 66.4277V29.4434C23.1886 28.916 23.6118 28.5117 24.1408 28.5117H28.2672C28.7785 28.5117 29.2194 28.916 29.2194 29.4434V66.4453C29.2194 72.8789 25.6926 76.5703 19.5736 76.5703C17.6868 76.5703 16.2056 76.5703 12.0792 74.5313L3.5444 69.627C1.42832 68.4141 0.123413 66.1465 0.123413 63.7031V26.2441C0.123413 23.8184 1.42832 21.5332 3.5444 20.3203L36.079 1.58203C38.1422 0.421875 40.8754 0.421875 42.921 1.58203L75.4908 20.3379C77.6069 21.5508 78.9118 23.8184 78.9118 26.2617V63.7207C78.9118 66.1465 77.6069 68.4141 75.4908 69.6445L42.921 88.3828C41.8806 88.9805 40.6991 89.2969 39.5 89.2969ZM65.7922 52.3652C65.7922 45.3516 61.031 43.4883 51.0326 42.1699C40.9107 40.834 39.8879 40.1484 39.8879 37.793C39.8879 35.8418 40.752 33.2402 48.2464 33.2402C54.9297 33.2402 57.3984 34.6816 58.4212 39.1816C58.5093 39.6035 58.8973 39.9199 59.3381 39.9199H63.5703C63.8348 39.9199 64.0817 39.8145 64.258 39.6211C64.4343 39.4277 64.5225 39.1641 64.5049 38.9004C63.8524 31.1484 58.6857 27.5449 48.2464 27.5449C38.9533 27.5449 33.4163 31.4473 33.4163 38.0039C33.4163 45.1055 38.9357 47.0742 47.8408 47.9531C58.5093 48.9902 59.3381 50.5547 59.3381 52.6465C59.3381 56.2676 56.4109 57.8145 49.5513 57.8145C40.9283 57.8145 39.0415 55.6523 38.4067 51.3809C38.3361 50.9238 37.9482 50.5898 37.4721 50.5898H33.2576C32.7285 50.5898 32.323 51.0117 32.323 51.5215C32.323 56.9883 35.3031 63.5098 49.5689 63.5098C59.8672 63.4922 65.7922 59.4316 65.7922 52.3652Z" fill="#58A149"/>
</g>
<defs>
<clipPath id="clip0_2001_13">
<rect width="79" height="90" fill="white"/>
</clipPath>
</defs>
</svg>
