<svg width="90" height="90" viewBox="0 0 90 90" fill="none" xmlns="http://www.w3.org/2000/svg">
<path d="M88.3065 41.001L49.0082 1.69392C47.9199 0.609119 46.446 0 44.9096 0C43.3731 0 41.8993 0.609119 40.811 1.69392L32.6339 9.85274L42.9808 20.202C48.4255 18.3733 53.5689 23.5781 51.7004 28.9838L61.6857 38.9713C68.5569 36.6 73.9815 45.201 68.8181 50.3655C63.4939 55.6909 54.7141 49.7828 57.567 42.8699L48.2447 33.5455V58.0421C53.3278 60.554 52.725 66.4621 50.073 69.0947C49.4328 69.7375 48.6719 70.2476 47.8341 70.5956C46.9963 70.9437 46.0981 71.1228 45.1909 71.1228C44.2837 71.1228 43.3854 70.9437 42.5476 70.5956C41.7098 70.2476 40.949 69.7375 40.3087 69.0947C36.7727 65.5578 38.0786 59.6698 42.579 57.8411V33.1235C38.4001 31.4154 37.6366 26.9541 38.8421 24.0804L28.6358 13.8518L1.69354 40.8C0.608983 41.8886 0 43.3627 0 44.8995C0 46.4363 0.608983 47.9105 1.69354 48.999L40.9918 88.3061C42.0801 89.3909 43.554 90 45.0904 90C46.6269 90 48.1007 89.3909 49.189 88.3061L88.3065 49.1799C89.391 48.0913 90 46.6172 90 45.0804C90 43.5436 89.391 42.0694 88.3065 40.9809V41.001Z" fill="#F05033"/>
</svg>
