<svg width="90" height="90" viewBox="0 0 90 90" fill="none" xmlns="http://www.w3.org/2000/svg">
<circle cx="45" cy="45" r="45" fill="white"/>
<path d="M30.1028 70.8925C30.1028 71.2566 29.6855 71.5479 29.1593 71.5479C28.5605 71.6025 28.1431 71.3112 28.1431 70.8925C28.1431 70.5284 28.5605 70.2371 29.0867 70.2371C29.631 70.1825 30.1028 70.4737 30.1028 70.8925ZM24.4597 70.0732C24.3327 70.4373 24.6956 70.8561 25.2399 70.9653C25.7117 71.1474 26.256 70.9653 26.3649 70.6012C26.4738 70.2371 26.129 69.8183 25.5847 69.6545C25.1129 69.5271 24.5867 69.7091 24.4597 70.0732ZM32.4798 69.7637C31.9536 69.8912 31.5907 70.2371 31.6452 70.6558C31.6996 71.0199 32.1714 71.2566 32.7157 71.1292C33.2419 71.0017 33.6048 70.6558 33.5504 70.2917C33.496 69.9458 33.006 69.7091 32.4798 69.7637ZM44.4194 0C19.252 0 0 19.1705 0 44.4216C0 64.6116 12.6653 81.8886 30.756 87.9693C33.0786 88.388 33.8952 86.9498 33.8952 85.7664C33.8952 84.6377 33.8407 78.4114 33.8407 74.5882C33.8407 74.5882 21.1391 77.319 18.4718 69.1629C18.4718 69.1629 16.4032 63.8651 13.4274 62.4997C13.4274 62.4997 9.27218 59.6414 13.7177 59.6961C13.7177 59.6961 18.2359 60.0602 20.7218 64.3931C24.6956 71.4204 31.3548 69.3996 33.9496 68.1981C34.3669 65.2852 35.5464 63.2643 36.8528 62.0628C26.7097 60.934 16.4758 59.4594 16.4758 41.9456C16.4758 36.9391 17.8548 34.4267 20.7581 31.2225C20.2863 30.0392 18.744 25.1601 21.2298 18.861C25.0222 17.6776 33.75 23.7765 33.75 23.7765C37.379 22.757 41.2802 22.229 45.1452 22.229C49.0101 22.229 52.9113 22.757 56.5403 23.7765C56.5403 23.7765 65.2681 17.6594 69.0605 18.861C71.5464 25.1783 70.004 30.0392 69.5323 31.2225C72.4355 34.4449 74.2137 36.9573 74.2137 41.9456C74.2137 59.514 63.5262 60.9158 53.3831 62.0628C55.0524 63.501 56.4677 66.2318 56.4677 70.5102C56.4677 76.6454 56.4133 84.2372 56.4133 85.73C56.4133 86.9134 57.248 88.3516 59.5524 87.9329C77.6976 81.8886 90 64.6116 90 44.4216C90 19.1705 69.5867 0 44.4194 0ZM17.6371 62.791C17.4012 62.9731 17.4556 63.3918 17.7641 63.7377C18.0544 64.029 18.4718 64.1564 18.7077 63.9197C18.9435 63.7377 18.8891 63.319 18.5806 62.9731C18.2903 62.6818 17.873 62.5543 17.6371 62.791ZM15.6774 61.3163C15.5504 61.553 15.7319 61.8443 16.0948 62.0264C16.3851 62.2084 16.748 62.1538 16.875 61.8989C17.002 61.6623 16.8206 61.371 16.4577 61.1889C16.0948 61.0797 15.8044 61.1343 15.6774 61.3163ZM21.5565 67.7975C21.2661 68.0342 21.375 68.5804 21.7923 68.9263C22.2097 69.345 22.7359 69.3996 22.9718 69.1083C23.2077 68.8717 23.0988 68.3255 22.7359 67.9796C22.3367 67.5609 21.7923 67.5062 21.5565 67.7975ZM19.4879 65.1213C19.1976 65.3034 19.1976 65.7767 19.4879 66.1954C19.7782 66.6142 20.2681 66.7962 20.504 66.6142C20.7944 66.3775 20.7944 65.9042 20.504 65.4854C20.25 65.0667 19.7782 64.8846 19.4879 65.1213Z" fill="black"/>
</svg>
