<svg width="28" height="28" viewBox="0 0 28 28" fill="none" xmlns="http://www.w3.org/2000/svg">
<path d="M0 5.25C0 4.28203 0.89375 3.5 2 3.5H26C27.1063 3.5 28 4.28203 28 5.25C28 6.21797 27.1063 7 26 7H2C0.89375 7 0 6.21797 0 5.25ZM0 14C0 13.032 0.89375 12.25 2 12.25H26C27.1063 12.25 28 13.032 28 14C28 14.968 27.1063 15.75 26 15.75H2C0.89375 15.75 0 14.968 0 14ZM28 22.75C28 23.718 27.1063 24.5 26 24.5H2C0.89375 24.5 0 23.718 0 22.75C0 21.782 0.89375 21 2 21H26C27.1063 21 28 21.782 28 22.75Z" fill="#1A1A1A"/>
</svg>
