<svg width="36" height="36" viewBox="0 0 36 36" fill="none" xmlns="http://www.w3.org/2000/svg">
<path d="M35.9159 24.6501C36.3239 23.6781 35.158 22.8501 34.1799 23.2821C32.225 24.1402 30.1129 24.5815 27.9778 24.5781C19.6079 24.5781 12.824 17.9301 12.824 9.72809C12.8209 6.95878 13.6076 4.24604 15.0919 1.90811C15.6599 1.01211 14.9779 -0.227881 13.938 0.0361181C5.91998 2.08211 0 9.22609 0 17.7241C0 27.8181 8.34997 36 18.6519 36C26.4519 36 33.1319 31.3101 35.9159 24.6501Z" fill="#484E53"/>
<path d="M25.2216 0.206105C24.1616 -0.501892 22.8976 0.762103 23.6037 1.8221L24.8637 3.71209C25.3747 4.47843 25.6475 5.37894 25.6475 6.30008C25.6475 7.22123 25.3747 8.12176 24.8637 8.88808L23.6037 10.7782C22.8976 11.8381 24.1637 13.1021 25.2237 12.3941L27.1117 11.1341C27.8779 10.623 28.7786 10.3502 29.6997 10.3502C30.6208 10.3502 31.5213 10.623 32.2877 11.1341L34.1776 12.3941C35.2376 13.1021 36.5016 11.8381 35.7936 10.7782L34.5336 8.88808C34.0225 8.12176 33.7497 7.22123 33.7497 6.30008C33.7497 5.37894 34.0225 4.47843 34.5336 3.71209L35.7936 1.8221C36.5016 0.762103 35.2376 -0.501892 34.1757 0.206105L32.2877 1.4661C31.5213 1.97724 30.6208 2.25 29.6997 2.25C28.7786 2.25 27.8779 1.97724 27.1117 1.4661L25.2216 0.206105Z" fill="#484E53"/>
</svg>
